<svg width="114" height="98" viewBox="0 0 114 98" fill="none" xmlns="http://www.w3.org/2000/svg">
<path d="M78.4222 36.7046C78.8575 36.7252 79.2151 36.7613 79.5726 36.7613C87.6978 36.7562 95.8229 36.7407 103.953 36.7459C106.523 36.7459 108.974 37.1379 110.995 38.8864C114.037 41.5169 114.897 46.2415 112.985 50.3574C112.534 51.3271 111.788 52.1679 111.244 53.1014C111.058 53.4212 110.918 53.9164 111.037 54.2258C112.648 58.2851 111.705 61.9162 109.197 65.3307C108.943 65.6763 108.726 66.2797 108.86 66.6202C110.477 70.6072 109.534 74.1867 107.083 77.5187C106.627 78.1376 106.549 78.5658 106.767 79.324C108.503 85.271 106.14 92.7189 97.8179 94.1631C94.1699 94.7975 90.3664 94.715 86.6303 94.7356C74.7949 94.7975 62.9596 94.7047 51.1242 94.7924C47.6057 94.8182 44.3515 94.3178 41.4238 92.3166C40.9263 91.9762 40.2268 91.9194 39.4288 91.6719C39.4288 92.4662 39.4547 93.0026 39.4236 93.5338C39.2785 95.9426 37.5477 97.8097 35.0604 97.9077C31.7285 98.0418 28.3862 97.9851 25.0491 97.9902C18.4837 98.0005 11.9183 98.0057 5.34768 97.9902C2.49247 97.9851 0.658096 96.6492 0.114001 94.2405C0.0207274 93.8227 0.00518186 93.3843 0.00518186 92.951C0 78.5297 0 64.1031 0 49.6766C0 46.0506 2.03647 44.0752 5.7985 44.07C16.1518 44.0597 26.5052 44.0442 36.8534 44.0803C38.0504 44.0855 39.2422 44.4723 40.4444 44.56C40.8797 44.591 41.4963 44.3743 41.7658 44.0597C43.3618 42.2184 45.0977 40.4389 46.388 38.4015C49.9997 32.7021 53.4301 26.8944 56.8761 21.0969C57.2388 20.4883 57.3735 19.6682 57.3683 18.9461C57.3424 15.2686 57.3891 11.5807 57.1144 7.91862C56.8398 4.18949 58.897 2.05414 61.7315 0.955517C65.6645 -0.560892 69.5043 -0.287526 73.1264 1.88393C73.7637 2.26561 74.4167 2.82782 74.7483 3.46223C77.3289 8.42409 79.4275 13.5562 80.4639 19.0699C80.9717 21.7726 80.4328 24.3773 80.0286 27.0027C79.5571 30.2057 78.9819 33.3933 78.4222 36.7046ZM72.5771 41.4395C72.5978 41.1197 72.5926 40.9753 72.6185 40.836C73.5461 35.6937 74.4996 30.5564 75.3857 25.4089C75.6396 23.9286 75.9505 22.3916 75.7898 20.9216C75.2302 15.6915 73.1419 10.9153 70.8101 6.232C70.6702 5.95348 70.4836 5.59759 70.2297 5.49443C67.7683 4.51444 65.3018 4.17918 62.8767 5.61822C62.1875 6.02569 61.861 6.53116 61.8869 7.37705C62.0165 11.3383 62.0424 15.3047 62.1719 19.2711C62.2186 20.576 61.9336 21.752 61.3428 22.9073C57.6067 30.1748 53.1399 37.0038 48.3675 43.6626C46.6004 46.128 44.4552 48.1654 41.8435 49.7591C40.9004 50.3317 40.0091 50.9867 39.0349 51.5077C38.154 51.977 37.8483 52.5702 37.8535 53.5605C37.8949 64.1238 37.8794 74.687 37.8794 85.2503C37.8794 85.6372 37.8794 86.024 37.8794 86.5811C40.7398 86.0395 42.7141 87.6333 44.8231 88.8763C45.2013 89.0981 45.59 89.3457 46.0097 89.4591C46.9269 89.7119 47.87 90.0678 48.8027 90.0678C63.7161 90.0987 78.6295 90.0884 93.5377 90.0678C95.9006 90.0626 98.1081 89.5262 99.8648 87.8654C102.989 84.9151 102.508 80.077 98.5537 79.1744C98.4967 79.1641 98.4656 79.0712 98.2169 78.7618C98.5537 78.4781 98.8595 78.0345 99.2637 77.9159C102.129 77.0803 103.839 75.2183 104.518 72.4382C105.026 70.3648 104.109 68.446 102.176 67.4248C101.663 67.1514 101.114 66.9503 100.238 66.5634C100.772 66.1147 101.098 65.6453 101.533 65.5112C104.238 64.6808 105.959 62.9529 106.7 60.3276C107.321 58.1252 106.477 56.2426 104.425 55.1027C103.886 54.8035 103.3 54.5766 102.746 54.3187C102.927 53.3077 102.927 53.3077 103.798 53.0653C106.767 52.2401 108.933 49.5477 109.068 46.5252C109.208 43.3737 107.171 41.455 103.585 41.4447C95.8695 41.424 88.1538 41.4395 80.438 41.4395C77.847 41.4395 75.2509 41.4395 72.5771 41.4395ZM33.5577 93.2811C33.5577 78.411 33.5577 63.6235 33.5577 48.8565C23.9402 48.8565 14.4004 48.8565 4.89167 48.8565C4.89167 63.7111 4.89167 78.4678 4.89167 93.2811C14.4677 93.2811 23.9505 93.2811 33.5577 93.2811Z" fill="#0C69CF"/>
</svg>
