<svg width="147" height="131" viewBox="0 0 147 131" fill="none" xmlns="http://www.w3.org/2000/svg">
<path d="M108.792 123.337L100.799 80.9278C99.9809 76.5892 102.226 72.2438 106.256 70.3709L140.106 54.6468C143.588 53.0299 145.225 49.0147 143.845 45.4508L129.084 7.2049C127.461 2.99429 122.687 0.912557 118.461 2.56986C114.242 4.22716 112.193 8.97673 113.897 13.1402L123.566 36.7668C125.135 40.6069 123.167 44.9725 119.232 46.3603L93.2663 55.5563C89.5811 63.0478 81.8252 68.2083 72.8589 68.2083C65.7657 68.2083 59.4366 64.9813 55.278 59.9286L30.4686 56.8835C26.4588 56.3917 23.6053 52.7806 24.0786 48.8058L26.7293 26.4457C27.3446 21.2717 23.6121 16.5761 18.3919 15.963C13.2258 15.3567 8.53304 18.9744 7.84333 24.0878L2.4 64.4087C1.87934 68.242 4.46914 71.8059 8.29637 72.5268L46.5822 79.7825C50.9572 80.6111 54.2096 84.2693 54.5004 88.6753L57.1984 130" stroke="#0C69CF" stroke-width="4" stroke-miterlimit="10"/>
<path d="M72.8589 68.2151C85.3955 68.2151 95.5585 58.1348 95.5585 45.7001C95.5585 33.2654 85.3955 23.1851 72.8589 23.1851C60.3222 23.1851 50.1592 33.2654 50.1592 45.7001C50.1592 58.1348 60.3222 68.2151 72.8589 68.2151Z" stroke="#0C69CF" stroke-width="4" stroke-miterlimit="10"/>
</svg>
