<svg width="126" height="113" viewBox="0 0 126 113" fill="none" xmlns="http://www.w3.org/2000/svg">
<path d="M93.464 106.274L86.5972 69.8286C85.8942 66.1001 87.823 62.3658 91.2855 60.7562L120.368 47.2433C123.36 45.8538 124.766 42.4032 123.581 39.3405L110.898 6.47296C109.504 2.85446 105.403 1.06548 101.772 2.48972C98.1465 3.91396 96.3862 7.99563 97.8502 11.5736L106.158 31.8777C107.506 35.1778 105.815 38.9295 102.434 40.1221L80.1254 48.0249C76.9592 54.463 70.2957 58.8978 62.5923 58.8978C56.4981 58.8978 51.0604 56.1246 47.4875 51.7824L26.1724 49.1655C22.7274 48.7428 20.2758 45.6396 20.6824 42.2237L22.9598 23.0081C23.4884 18.5616 20.2816 14.5263 15.7966 13.9994C11.3582 13.4784 7.32637 16.5874 6.7338 20.9817L2.05714 55.6325C1.60981 58.9267 3.83485 61.9894 7.12304 62.6089L40.0165 68.8443C43.7753 69.5564 46.5696 72.7002 46.8194 76.4866L49.1374 112" stroke="#0C69CF" stroke-width="4" stroke-miterlimit="10"/>
<path d="M62.5924 58.9036C73.3633 58.9036 82.0949 50.2408 82.0949 39.5548C82.0949 28.8687 73.3633 20.2059 62.5924 20.2059C51.8214 20.2059 43.0898 28.8687 43.0898 39.5548C43.0898 50.2408 51.8214 58.9036 62.5924 58.9036Z" stroke="#0C69CF" stroke-width="4" stroke-miterlimit="10"/>
</svg>
