<svg width="148" height="128" viewBox="0 0 148 128" fill="none" xmlns="http://www.w3.org/2000/svg">
<path d="M101.811 47.9407C102.376 47.9677 102.841 48.0148 103.305 48.0148C113.853 48.0081 124.402 47.9879 134.957 47.9946C138.294 47.9946 141.476 48.5066 144.099 50.7904C148.048 54.2261 149.165 60.397 146.683 65.773C146.097 67.0395 145.129 68.1376 144.422 69.357C144.18 69.7746 143.998 70.4214 144.153 70.8256C146.245 76.1274 145.021 80.8701 141.765 85.3299C141.435 85.7813 141.153 86.5695 141.328 87.0141C143.427 92.2216 142.202 96.8969 139.02 101.249C138.428 102.057 138.327 102.616 138.61 103.607C140.863 111.374 137.796 121.102 126.992 122.989C122.256 123.817 117.318 123.709 112.467 123.736C97.1022 123.817 81.737 123.696 66.3718 123.81C61.8039 123.844 57.5792 123.191 53.7782 120.577C53.1324 120.132 52.2242 120.058 51.1882 119.735C51.1882 120.772 51.2218 121.473 51.1815 122.167C50.9931 125.313 48.7462 127.751 45.5171 127.879C41.1914 128.055 36.8523 127.98 32.5199 127.987C23.9964 128.001 15.4728 128.007 6.9426 127.987C3.23584 127.98 0.85437 126.236 0.148001 123.09C0.0269093 122.544 0.00672732 121.971 0.00672732 121.405C0 102.569 0 83.7265 0 64.8837C0 60.1478 2.64384 57.5676 7.52787 57.5608C20.9691 57.5474 34.4103 57.5272 47.8447 57.5743C49.3987 57.5811 50.946 58.0863 52.5068 58.2008C53.0719 58.2413 53.8724 57.9583 54.2222 57.5474C56.2942 55.1423 58.5479 52.8181 60.223 50.1571C64.9119 42.713 69.3654 35.1273 73.8391 27.5552C74.31 26.7602 74.4849 25.6891 74.4782 24.7459C74.4446 19.9426 74.5051 15.1258 74.1486 10.3427C73.792 5.47199 76.4628 2.68296 80.1426 1.24802C85.2486 -0.732594 90.2336 -0.375544 94.936 2.46064C95.7635 2.95917 96.6111 3.69348 97.0416 4.5221C100.392 11.0029 103.116 17.706 104.462 24.9076C105.121 28.4377 104.422 31.8398 103.897 35.2688C103.285 39.4524 102.538 43.6157 101.811 47.9407ZM94.2229 54.1251C94.2498 53.7074 94.2431 53.5188 94.2767 53.3369C95.4809 46.6203 96.7187 39.9105 97.8691 33.1871C98.1987 31.2537 98.6024 29.2461 98.3938 27.3261C97.6673 20.495 94.9562 14.2568 91.9289 8.13976C91.7472 7.77597 91.5051 7.31113 91.1754 7.1764C87.9799 5.89641 84.7777 5.45852 81.6293 7.33808C80.7346 7.87029 80.3108 8.53049 80.3444 9.63532C80.5126 14.8092 80.5462 19.9898 80.7144 25.1704C80.775 26.8748 80.405 28.4108 79.6381 29.9198C74.7877 39.4119 68.9887 48.3314 62.7928 57.0286C60.4988 60.2488 57.7137 62.9099 54.3231 64.9915C53.0988 65.7393 51.9417 66.5949 50.6769 67.2753C49.5333 67.8883 49.1364 68.6631 49.1431 69.9565C49.1969 83.7535 49.1767 97.5504 49.1767 111.347C49.1767 111.853 49.1767 112.358 49.1767 113.085C52.8902 112.378 55.4533 114.46 58.1913 116.083C58.6824 116.373 59.187 116.696 59.7319 116.845C60.9226 117.175 62.147 117.64 63.3579 117.64C82.7192 117.68 102.08 117.666 121.435 117.64C124.503 117.633 127.368 116.932 129.649 114.763C133.706 110.909 133.08 104.59 127.947 103.411C127.873 103.398 127.833 103.277 127.51 102.872C127.947 102.502 128.344 101.923 128.869 101.768C132.589 100.676 134.809 98.2443 135.69 94.6132C136.349 91.905 135.159 89.3989 132.649 88.065C131.983 87.708 131.27 87.4452 130.133 86.94C130.826 86.3539 131.25 85.7408 131.815 85.5657C135.327 84.4811 137.56 82.2242 138.522 78.7952C139.33 75.9186 138.233 73.4597 135.569 71.9708C134.869 71.5801 134.109 71.2837 133.389 70.9468C133.625 69.6264 133.625 69.6264 134.755 69.3098C138.61 68.2319 141.422 64.7153 141.597 60.7676C141.778 56.6514 139.135 54.1453 134.479 54.1318C124.462 54.1049 114.445 54.1251 104.428 54.1251C101.065 54.1251 97.6942 54.1251 94.2229 54.1251ZM43.5661 121.837C43.5661 102.414 43.5661 83.1 43.5661 63.8126C31.0802 63.8126 18.6952 63.8126 6.35059 63.8126C6.35059 83.2145 6.35059 102.488 6.35059 121.837C18.7827 121.837 31.0937 121.837 43.5661 121.837Z" fill="#0C69CF"/>
</svg>
