<svg width="164" height="68" viewBox="0 0 164 68" fill="none" xmlns="http://www.w3.org/2000/svg">
<path d="M19.3445 60.2298C19.3445 62.4288 19.7695 63.9858 20.6118 64.9008C21.4542 65.8158 22.9153 66.325 24.9876 66.4283V68.0001H0V66.4209C2.07236 66.3398 3.53345 65.838 4.37582 64.9082C5.21818 63.9858 5.64309 62.4214 5.64309 60.2225V32.9566C5.64309 30.7576 5.21073 29.2006 4.36091 28.2708C3.50364 27.3484 2.05 26.8466 0 26.7655V25.1937H24.9951V26.795C22.9004 26.8983 21.4393 27.4001 20.6044 28.3077C19.7695 29.208 19.352 30.765 19.352 32.964V60.2298H19.3445Z" fill="#0C69CF"/>
<path d="M68.06 25.1937V36.255H66.502C66.2038 33.2739 65.354 31.1413 63.9525 29.8647C62.5436 28.5807 60.3669 27.9388 57.4 27.9388H54.5449V60.2225C54.5449 62.4214 54.9624 63.9784 55.7973 64.8935C56.6322 65.8085 58.0933 66.3176 60.188 66.4209V67.9927H35.2078V66.4209C37.2354 66.3619 38.6891 65.8601 39.5538 64.923C40.4185 63.9858 40.8509 62.4214 40.8509 60.2225V27.9388H37.9958C35.0364 27.9388 32.8596 28.5807 31.4805 29.8647C30.094 31.1487 29.2516 33.2813 28.9609 36.2624H27.3433V25.1937H68.06Z" fill="#0C69CF"/>
<path d="M70.2817 67.9926V66.4209C72.3317 66.3618 73.7854 65.8601 74.6426 64.9229C75.4999 63.9858 75.9248 62.4214 75.9248 60.2224V32.9565C75.9248 30.7575 75.4925 29.2005 74.6426 28.2708C73.7854 27.3484 72.3317 26.8466 70.2817 26.758V25.1863H108.911V36.8601H107.353C106.869 33.5542 105.788 31.2372 104.118 29.9089C102.448 28.5881 99.6974 27.9239 95.8732 27.9239H89.6263V44.6229H90.3568C92.7646 44.6229 94.5612 43.944 95.7465 42.5863C96.9317 41.2285 97.6772 38.9705 97.9977 35.8048H99.6452V56.3557H97.9977C97.6772 53.1311 96.9168 50.8435 95.7166 49.4858C94.509 48.128 92.6603 47.4491 90.163 47.4491H89.6263V60.6947C89.6263 62.7682 89.9543 64.0374 90.6103 64.5023C91.2663 64.9672 92.9063 65.1959 95.5303 65.1959C99.6303 65.1959 102.776 64.3621 104.968 62.7018C107.159 61.0415 108.762 58.2743 109.776 54.415H111.58L109.045 67.9705H70.2817V67.9926Z" fill="#0C69CF"/>
<path d="M134.256 60.2298C134.256 62.4288 134.607 63.9858 135.3 64.9008C135.993 65.8158 137.186 66.3249 138.848 66.4282L138.878 68H114.897V66.4209C116.947 66.3618 118.401 65.8601 119.258 64.9229C120.115 63.9857 120.54 62.4214 120.54 60.2224V32.9565C120.54 30.7575 120.115 29.2005 119.258 28.2708C118.401 27.3484 116.947 26.8466 114.897 26.758V25.1863H139.005V26.7876C137.246 26.8687 136.016 27.3557 135.308 28.2486C134.599 29.1415 134.242 30.7059 134.242 32.9491V46.3496L146.706 31.2519C147.212 30.6542 147.585 30.1229 147.831 29.6507C148.077 29.1784 148.196 28.7504 148.196 28.3593C148.196 27.8501 147.846 27.4591 147.153 27.186C146.452 26.9204 145.416 26.7876 144.044 26.7876V25.1863H158.663V26.7876H158.156C156.695 26.7876 155.42 27.0606 154.317 27.6066C153.213 28.1527 152.162 29.0529 151.148 30.3L144.395 38.4687L159.05 62.3181C159.87 63.5947 160.69 64.5613 161.495 65.2328C162.3 65.8969 163.135 66.2954 164 66.4209V67.9926H141.674V66.4209C143.299 66.3397 144.41 66.1847 145.006 65.956C145.602 65.7272 145.893 65.3583 145.893 64.8491C145.893 64.5835 145.833 64.2957 145.722 63.9857C145.602 63.6758 145.356 63.2036 144.976 62.569L136.224 47.9952L134.256 50.3344V60.2298Z" fill="#0C69CF"/>
<path d="M22.5652 2.97476H22.5055L19.315 4.52491L18.8379 2.81974L22.8484 0.885742H24.9655V17.4281H22.5652V2.97476Z" fill="#0C69CF"/>
<path d="M43.842 8.98337C43.842 14.6082 41.5309 17.7159 37.4605 17.7159C33.8746 17.7159 31.4443 14.6894 31.3921 9.2122C31.3921 3.66118 34.0461 0.612549 37.7736 0.612549C41.6427 0.612549 43.842 3.71285 43.842 8.98337ZM33.8821 9.24173C33.8821 13.5452 35.3507 15.9886 37.6096 15.9886C40.1517 15.9886 41.3594 13.3164 41.3594 9.09409C41.3594 5.01941 40.2039 2.34724 37.6319 2.34724C35.4625 2.33986 33.8821 4.73152 33.8821 9.24173Z" fill="#0C69CF"/>
<path d="M58.3195 8.98337C58.3195 14.6082 56.0084 17.7159 51.938 17.7159C48.3521 17.7159 45.9218 14.6894 45.8696 9.2122C45.8696 3.66118 48.5236 0.612549 52.2511 0.612549C56.1203 0.612549 58.3195 3.71285 58.3195 8.98337ZM48.3596 9.24173C48.3596 13.5452 49.8282 15.9886 52.0871 15.9886C54.6293 15.9886 55.837 13.3164 55.837 9.09409C55.837 5.01941 54.6815 2.34724 52.1095 2.34724C49.9401 2.33986 48.3596 4.73152 48.3596 9.24173Z" fill="#0C69CF"/>
<path d="M70.3971 17.4355V10.1572L64.3809 0.280518H67.1765L69.8603 5.01217C70.5909 6.31135 71.1575 7.35216 71.7539 8.54799H71.8135C72.3503 7.42598 72.9989 6.31135 73.7294 5.01217L76.4654 0.280518H79.2611L72.8796 10.1277V17.4355H70.3971Z" fill="#0C69CF"/>
<path d="M91.0766 9.38951H83.6817V15.5754H91.919V17.4355H81.2217V0.280518H91.494V2.1407H83.6742V7.55885H91.0691V9.38951H91.0766Z" fill="#0C69CF"/>
<path d="M98.1891 12.0395L96.2135 17.4355H93.6714L100.135 0.280518H103.102L109.595 17.4355H106.971L104.936 12.0395H98.1891ZM104.429 10.3122L102.565 5.37387C102.14 4.25186 101.857 3.23319 101.574 2.24404H101.514C101.231 3.26271 100.925 4.30353 100.552 5.35173L98.6886 10.3122H104.429Z" fill="#0C69CF"/>
<path d="M112.383 0.50935C113.628 0.280518 115.403 0.155029 117.095 0.155029C119.719 0.155029 121.411 0.590548 122.597 1.55755C123.558 2.32524 124.095 3.49155 124.095 4.81287C124.095 7.07904 122.515 8.57752 120.509 9.1902V9.26402C121.978 9.72168 122.85 10.947 123.305 12.726C123.924 15.1177 124.378 16.7712 124.774 17.4355H122.231C121.918 16.9557 121.501 15.472 120.964 13.3387C120.397 10.9692 119.384 10.0834 117.155 10.0022H114.843V17.4355H112.391V0.50935H112.383ZM114.836 8.32654H117.348C119.973 8.32654 121.642 7.02737 121.642 5.07123C121.642 2.85672 119.861 1.88972 117.266 1.86758C116.081 1.86758 115.231 1.97092 114.836 2.07427V8.32654Z" fill="#0C69CF"/>
<path d="M127.226 14.7412C128.33 15.3539 129.94 15.8632 131.632 15.8632C134.144 15.8632 135.613 14.6674 135.613 12.9327C135.613 11.3309 134.599 10.4155 132.027 9.52236C128.926 8.53322 127.003 7.07903 127.003 4.65784C127.003 1.98567 129.455 0 133.153 0C135.098 0 136.507 0.405992 137.357 0.841511L136.679 2.65002C136.06 2.34737 134.785 1.83804 133.063 1.83804C130.469 1.83804 129.478 3.24056 129.478 4.40686C129.478 6.00868 130.633 6.79852 133.257 7.71385C136.477 8.83587 138.11 10.231 138.11 12.7555C138.11 15.4056 135.941 17.6939 131.453 17.6939C129.619 17.6939 127.614 17.2067 126.6 16.6014L127.226 14.7412Z" fill="#0C69CF"/>
</svg>
