<svg width="160" height="66" viewBox="0 0 160 66" fill="none" xmlns="http://www.w3.org/2000/svg">
<path d="M18.8727 58.5167C18.8727 60.6345 19.2873 62.134 20.1091 63.0153C20.9309 63.8965 22.3564 64.3869 24.3782 64.4864V66.0001H0V64.4793C2.02182 64.4011 3.44727 63.9178 4.26909 63.0224C5.09091 62.134 5.50545 60.6274 5.50545 58.5096V32.2503C5.50545 30.1325 5.08364 28.633 4.25455 27.7375C3.41818 26.8492 2 26.3659 0 26.2878V24.774H24.3855V26.3162C22.3418 26.4157 20.9164 26.899 20.1018 27.7731C19.2873 28.6401 18.88 30.1396 18.88 32.2574V58.5167H18.8727Z" fill="#0C69CF"/>
<path d="M66.4002 24.7739V35.4268H64.8802C64.5892 32.5557 63.7602 30.5019 62.3929 29.2724C61.0183 28.0358 58.8947 27.4176 56.0002 27.4176H53.2147V58.5094C53.2147 60.6272 53.622 62.1267 54.4365 63.008C55.2511 63.8892 56.6765 64.3796 58.7201 64.4791V65.9928H34.3492V64.4791C36.3274 64.4222 37.7456 63.939 38.5892 63.0364C39.4329 62.1339 39.8547 60.6272 39.8547 58.5094V27.4176H37.0692C34.182 27.4176 32.0583 28.0358 30.7129 29.2724C29.3601 30.509 28.5383 32.5628 28.2547 35.4339H26.6765V24.7739H66.4002Z" fill="#0C69CF"/>
<path d="M68.5673 65.9926V64.4789C70.5673 64.4221 71.9854 63.9388 72.8218 63.0363C73.6582 62.1337 74.0727 60.6271 74.0727 58.5093V32.25C74.0727 30.1322 73.6509 28.6327 72.8218 27.7372C71.9854 26.8489 70.5673 26.3656 68.5673 26.2803V24.7666H106.255V36.0094H104.735C104.262 32.8256 103.207 30.5941 101.578 29.3149C99.9491 28.0428 97.2654 27.4032 93.5345 27.4032H87.44V43.4857H88.1527C90.5018 43.4857 92.2545 42.8319 93.4109 41.5242C94.5673 40.2166 95.2945 38.0419 95.6073 34.9932H97.2145V54.7854H95.6073C95.2945 51.6797 94.5527 49.4766 93.3818 48.169C92.2036 46.8614 90.4 46.2076 87.9636 46.2076H87.44V58.9641C87.44 60.9611 87.76 62.1834 88.4 62.6312C89.04 63.0789 90.64 63.2992 93.2 63.2992C97.2 63.2992 100.269 62.4961 102.407 60.8971C104.545 59.2981 106.109 56.6331 107.098 52.9163H108.858L106.385 65.9713H68.5673V65.9926Z" fill="#0C69CF"/>
<path d="M130.982 58.5164C130.982 60.6342 131.324 62.1337 132 63.0149C132.676 63.8962 133.84 64.3865 135.462 64.486L135.491 65.9997H112.095V64.4789C114.095 64.4221 115.513 63.9388 116.349 63.0362C117.186 62.1337 117.6 60.6271 117.6 58.5093V32.25C117.6 30.1322 117.186 28.6327 116.349 27.7372C115.513 26.8489 114.095 26.3656 112.095 26.2803V24.7666H135.615V26.3088C133.898 26.3869 132.698 26.856 132.007 27.7159C131.316 28.5758 130.967 30.0824 130.967 32.2429V45.1487L143.127 30.6083C143.622 30.0327 143.986 29.521 144.226 29.0662C144.466 28.6113 144.582 28.1991 144.582 27.8225C144.582 27.3321 144.24 26.9555 143.564 26.6925C142.88 26.4367 141.869 26.3088 140.531 26.3088V24.7666H154.793V26.3088H154.298C152.873 26.3088 151.629 26.5717 150.553 27.0976C149.476 27.6235 148.451 28.4905 147.462 29.6916L140.873 37.5587L155.171 60.5276C155.971 61.757 156.771 62.688 157.556 63.3347C158.342 63.9743 159.156 64.3581 160 64.4789V65.9926H138.218V64.4789C139.804 64.4007 140.887 64.2515 141.469 64.0312C142.051 63.8109 142.335 63.4555 142.335 62.9652C142.335 62.7093 142.276 62.4322 142.167 62.1337C142.051 61.8352 141.811 61.3804 141.44 60.7692L132.902 46.7334L130.982 48.9863V58.5164Z" fill="#0C69CF"/>
<path d="M22.0145 2.86492H21.9564L18.8436 4.35784L18.3782 2.71563L22.2909 0.853027H24.3564V16.7847H22.0145V2.86492Z" fill="#0C69CF"/>
<path d="M42.7724 8.65176C42.7724 14.0689 40.5177 17.0619 36.5466 17.0619C33.0482 17.0619 30.6771 14.1471 30.6262 8.87214C30.6262 3.52605 33.2155 0.589966 36.8521 0.589966C40.6268 0.589966 42.7724 3.57581 42.7724 8.65176ZM33.0555 8.90058C33.0555 13.0452 34.4883 15.3984 36.6921 15.3984C39.1722 15.3984 40.3505 12.8248 40.3505 8.75839C40.3505 4.83414 39.2231 2.26062 36.7139 2.26062C34.5974 2.25351 33.0555 4.55688 33.0555 8.90058Z" fill="#0C69CF"/>
<path d="M56.897 8.65176C56.897 14.0689 54.6423 17.0619 50.6711 17.0619C47.1727 17.0619 44.8016 14.1471 44.7507 8.87214C44.7507 3.52605 47.34 0.589966 50.9766 0.589966C54.7514 0.589966 56.897 3.57581 56.897 8.65176ZM47.18 8.90058C47.18 13.0452 48.6128 15.3984 50.8166 15.3984C53.2967 15.3984 54.475 12.8248 54.475 8.75839C54.475 4.83414 53.3476 2.26062 50.8384 2.26062C48.7219 2.25351 47.18 4.55688 47.18 8.90058Z" fill="#0C69CF"/>
<path d="M68.6795 16.7918V9.7822L62.8101 0.270142H65.5375L68.1558 4.82712C68.8686 6.07833 69.4214 7.08072 70.0032 8.23241H70.0614C70.5851 7.15181 71.2179 6.07833 71.9306 4.82712L74.5999 0.270142H77.3273L71.1015 9.75377V16.7918H68.6795Z" fill="#0C69CF"/>
<path d="M88.8548 9.04285H81.6402V15.0003H89.6766V16.7918H79.2402V0.270142H89.2621V2.06165H81.633V7.27978H88.8475V9.04285H88.8548Z" fill="#0C69CF"/>
<path d="M95.794 11.595L93.8666 16.7918H91.3865L97.6923 0.270142H100.587L106.922 16.7918H104.362L102.376 11.595H95.794ZM101.882 9.9315L100.063 5.17546C99.6488 4.09487 99.3724 3.11381 99.096 2.16118H99.0379C98.7615 3.14224 98.4633 4.14464 98.0996 5.15414L96.2813 9.9315H101.882Z" fill="#0C69CF"/>
<path d="M109.642 0.490532C110.857 0.270148 112.588 0.149292 114.239 0.149292C116.799 0.149292 118.45 0.568733 119.606 1.50003C120.545 2.23939 121.068 3.36263 121.068 4.63517C121.068 6.81769 119.526 8.26085 117.57 8.85091V8.922C119.003 9.36277 119.854 10.5429 120.297 12.2562C120.901 14.5596 121.345 16.152 121.73 16.7918H119.25C118.944 16.3297 118.537 14.9008 118.014 12.8463C117.461 10.5642 116.472 9.71112 114.297 9.63292H112.042V16.7918H109.649V0.490532H109.642ZM112.035 8.01914H114.486C117.046 8.01914 118.675 6.76792 118.675 4.88399C118.675 2.75125 116.937 1.81995 114.406 1.79862C113.25 1.79862 112.42 1.89815 112.035 1.99767V8.01914Z" fill="#0C69CF"/>
<path d="M124.123 14.197C125.199 14.7871 126.77 15.2776 128.421 15.2776C130.872 15.2776 132.305 14.1259 132.305 12.4553C132.305 10.9126 131.316 10.031 128.807 9.17082C125.781 8.21819 123.905 6.81769 123.905 4.48588C123.905 1.91236 126.298 0 129.905 0C131.803 0 133.178 0.391004 134.007 0.810445L133.345 2.55219C132.741 2.26071 131.498 1.77018 129.818 1.77018C127.287 1.77018 126.319 3.12092 126.319 4.24417C126.319 5.78686 127.447 6.54754 130.007 7.42907C133.148 8.50967 134.741 9.8533 134.741 12.2846C134.741 14.8368 132.625 17.0407 128.247 17.0407C126.458 17.0407 124.501 16.5715 123.512 15.9885L124.123 14.197Z" fill="#0C69CF"/>
</svg>
