<?xml version="1.0" encoding="utf-8"?>
<!-- Generator: Adobe Illustrator 24.3.0, SVG Export Plug-In . SVG Version: 6.00 Build 0)  -->
<svg version="1.1" id="Layer_1" xmlns="http://www.w3.org/2000/svg" xmlns:xlink="http://www.w3.org/1999/xlink" x="0px" y="0px"
	 viewBox="0 0 252.9 216.1" style="enable-background:new 0 0 252.9 216.1;" xml:space="preserve">
<style type="text/css">
	.st0{fill:none;stroke:#0C69CF;stroke-width:4;stroke-miterlimit:10;}
	.st1{fill:#0C69CF;}
</style>
<g>
	<path class="st0" d="M75.6,18.1L94.6,6l10.3,19.9l22.5-1l-1,22.3l20,10.3l-12.1,18.8l12.1,18.8l-20,10.3l1,22.3l-22.5-1l-10.3,19.9
		l-18.9-12.1l-18.9,12.1l-10.3-19.9l-22.5,1l1-22.3l-20-10.3l12.1-18.8L4.9,57.5l20-10.3l-1-22.3l22.5,1L56.7,6L75.6,18.1z"/>
	<path class="st0" d="M75.7,119.3c23.8,0,43.1-19.2,43.1-42.9c0-23.7-19.3-42.9-43.1-42.9c-23.8,0-43.1,19.2-43.1,42.9
		C32.5,100.1,51.8,119.3,75.7,119.3z"/>
	<path class="st0" d="M40.5,136.8l-12.8,0.6L3.5,193.7l28.2-12.8L41.8,210L67,151.7l-14.1,9L40.5,136.8z"/>
	<path class="st0" d="M98.3,160.7l-17.8-11.3l26.2,60.7l10.1-29.1l28.2,12.8l-24.3-56.4l-10-0.5L98.3,160.7z"/>
	<path class="st1" d="M166.8,128.7c1.3,0,2.4,0.1,3.3,0.4c0.9,0.2,1.6,0.6,2,1.2c0.5,0.5,0.7,1.3,0.7,2.2c0,0.6-0.1,1.1-0.3,1.5
		c-0.2,0.5-0.4,0.8-0.8,1.1c-0.3,0.3-0.7,0.5-1.2,0.6v0.1c0.5,0.1,1,0.3,1.4,0.5c0.4,0.2,0.7,0.6,1,1.1c0.2,0.5,0.4,1.1,0.4,1.9
		c0,0.9-0.2,1.7-0.7,2.3c-0.4,0.6-1.1,1.1-1.9,1.5c-0.8,0.3-1.8,0.5-2.9,0.5h-5.6v-14.8H166.8z M167.1,134.5c0.9,0,1.6-0.1,1.9-0.4
		c0.4-0.3,0.5-0.7,0.5-1.3c0-0.6-0.2-1-0.6-1.2c-0.4-0.2-1.1-0.4-2-0.4h-1.7v3.3H167.1z M165.3,137v3.9h2.1c0.9,0,1.6-0.2,2-0.5
		c0.4-0.4,0.6-0.9,0.6-1.5c0-0.4-0.1-0.7-0.3-1c-0.2-0.3-0.4-0.5-0.8-0.6c-0.4-0.2-0.9-0.2-1.6-0.2H165.3z M181.1,143.5H178v-15.8
		h3.1V143.5z M196.9,132.2v11.3h-2.4l-0.4-1.5H194c-0.2,0.4-0.5,0.7-0.9,1c-0.4,0.2-0.8,0.4-1.2,0.5c-0.4,0.1-0.9,0.2-1.4,0.2
		c-0.8,0-1.5-0.1-2.1-0.4c-0.6-0.3-1.1-0.7-1.4-1.3c-0.3-0.6-0.5-1.4-0.5-2.4v-7.4h3.1v6.6c0,0.8,0.1,1.4,0.4,1.8
		c0.3,0.4,0.8,0.6,1.4,0.6c0.6,0,1.1-0.1,1.5-0.4c0.4-0.3,0.6-0.7,0.8-1.3c0.2-0.6,0.2-1.2,0.2-2v-5.3H196.9z M207,132
		c1.1,0,2,0.2,2.7,0.6c0.8,0.4,1.4,1,1.8,1.7c0.4,0.8,0.6,1.7,0.6,2.8v1.5h-7.4c0,0.9,0.3,1.6,0.8,2.1c0.5,0.5,1.2,0.7,2.1,0.7
		c0.7,0,1.4-0.1,2-0.2c0.6-0.2,1.2-0.4,1.9-0.7v2.4c-0.6,0.3-1.1,0.5-1.8,0.6c-0.6,0.1-1.4,0.2-2.2,0.2c-1.1,0-2.2-0.2-3-0.6
		c-0.9-0.4-1.6-1.1-2.1-1.9c-0.5-0.9-0.8-1.9-0.8-3.2c0-1.3,0.2-2.4,0.7-3.3c0.5-0.9,1.1-1.5,1.9-2C205,132.2,205.9,132,207,132z
		 M207,134.2c-0.6,0-1.1,0.2-1.5,0.6c-0.4,0.4-0.6,1-0.7,1.8h4.4c0-0.5-0.1-0.9-0.3-1.2c-0.2-0.4-0.4-0.6-0.7-0.9
		S207.5,134.2,207,134.2z M175.7,167.2c0,1.1-0.1,2.1-0.4,3s-0.7,1.7-1.2,2.4c-0.5,0.7-1.2,1.2-2.1,1.6l3.6,4h-4.1l-2.7-3.3
		c0,0-0.1,0-0.1,0c0,0-0.1,0-0.1,0c-1.2,0-2.3-0.2-3.2-0.5c-0.9-0.4-1.6-0.9-2.2-1.6c-0.6-0.7-1-1.5-1.3-2.4c-0.3-0.9-0.4-2-0.4-3.1
		c0-1.5,0.3-2.9,0.8-4c0.5-1.1,1.3-2,2.3-2.6c1.1-0.6,2.4-1,4-1c1.6,0,2.9,0.3,4,1c1,0.6,1.8,1.5,2.3,2.7
		C175.4,164.3,175.7,165.6,175.7,167.2z M164.8,167.2c0,1,0.1,1.9,0.4,2.7c0.3,0.7,0.7,1.3,1.2,1.7s1.3,0.6,2.2,0.6
		c0.9,0,1.6-0.2,2.2-0.6c0.6-0.4,1-1,1.2-1.7c0.3-0.7,0.4-1.6,0.4-2.7c0-1.6-0.3-2.8-0.9-3.7c-0.6-0.9-1.5-1.3-2.9-1.3
		c-0.9,0-1.6,0.2-2.2,0.6s-1,1-1.2,1.7C164.9,165.3,164.8,166.1,164.8,167.2z M191.1,163.3v11.3h-2.4l-0.4-1.5h-0.2
		c-0.2,0.4-0.5,0.7-0.9,1c-0.4,0.2-0.8,0.4-1.2,0.5c-0.4,0.1-0.9,0.2-1.4,0.2c-0.8,0-1.5-0.1-2.1-0.4c-0.6-0.3-1.1-0.7-1.4-1.3
		c-0.3-0.6-0.5-1.4-0.5-2.4v-7.4h3.1v6.6c0,0.8,0.1,1.4,0.4,1.8c0.3,0.4,0.8,0.6,1.4,0.6c0.6,0,1.1-0.1,1.5-0.4
		c0.4-0.3,0.6-0.7,0.8-1.3c0.2-0.6,0.2-1.2,0.2-2v-5.3H191.1z M201.1,163.1c1.5,0,2.7,0.3,3.5,1c0.8,0.7,1.2,1.7,1.2,3v7.6h-2.2
		l-0.6-1.5H203c-0.3,0.4-0.7,0.7-1,1c-0.3,0.3-0.7,0.4-1.2,0.6c-0.4,0.1-1,0.2-1.6,0.2c-0.7,0-1.3-0.1-1.8-0.4
		c-0.5-0.3-0.9-0.7-1.3-1.2c-0.3-0.5-0.5-1.2-0.5-2c0-1.2,0.4-2.1,1.3-2.7c0.9-0.6,2.1-0.9,3.8-1l2-0.1v-0.5c0-0.6-0.2-1-0.5-1.3
		c-0.3-0.3-0.7-0.4-1.3-0.4c-0.6,0-1.1,0.1-1.6,0.2c-0.5,0.2-1.1,0.3-1.6,0.6l-1-2.1c0.6-0.3,1.3-0.6,2-0.7
		C199.5,163.1,200.3,163.1,201.1,163.1z M201.5,169.4c-1,0-1.7,0.2-2.1,0.5s-0.6,0.8-0.6,1.3c0,0.5,0.1,0.8,0.4,1
		c0.3,0.2,0.6,0.3,1.1,0.3c0.7,0,1.2-0.2,1.7-0.6c0.5-0.4,0.7-1,0.7-1.7v-0.9L201.5,169.4z M214.2,174.6h-3.1v-15.8h3.1V174.6z
		 M222.7,163.3v11.3h-3.1v-11.3H222.7z M221.2,158.8c0.5,0,0.9,0.1,1.2,0.3c0.3,0.2,0.5,0.6,0.5,1.2c0,0.6-0.2,1-0.5,1.2
		c-0.3,0.2-0.7,0.3-1.2,0.3c-0.5,0-0.9-0.1-1.2-0.3c-0.3-0.2-0.5-0.6-0.5-1.2c0-0.6,0.2-1,0.5-1.2
		C220.3,159,220.7,158.8,221.2,158.8z M232.9,172.3c0.3,0,0.7,0,1-0.1c0.3-0.1,0.6-0.2,1-0.2v2.3c-0.3,0.1-0.8,0.3-1.3,0.4
		c-0.5,0.1-1,0.2-1.6,0.2c-0.7,0-1.3-0.1-1.8-0.3c-0.5-0.2-1-0.6-1.3-1.1c-0.3-0.6-0.5-1.3-0.5-2.3v-5.5h-1.5v-1.3l1.7-1l0.9-2.4h2
		v2.4h3.2v2.3h-3.2v5.5c0,0.4,0.1,0.8,0.4,1C232.1,172.2,232.5,172.3,232.9,172.3z M237.6,163.3h3.4l2.2,6.4
		c0.1,0.2,0.1,0.4,0.2,0.6c0.1,0.2,0.1,0.4,0.1,0.6c0,0.2,0.1,0.5,0.1,0.7h0.1c0-0.4,0.1-0.7,0.2-1c0.1-0.3,0.2-0.7,0.3-1l2.1-6.4
		h3.3l-4.8,12.8c-0.3,0.8-0.7,1.4-1.1,2c-0.5,0.5-1,0.9-1.6,1.2c-0.6,0.3-1.3,0.4-2,0.4c-0.3,0-0.7,0-0.9-0.1
		c-0.3,0-0.5-0.1-0.7-0.1V177c0.2,0,0.3,0.1,0.5,0.1c0.2,0,0.5,0,0.7,0c0.4,0,0.8-0.1,1.1-0.3c0.3-0.2,0.6-0.4,0.8-0.7
		c0.2-0.3,0.4-0.6,0.5-1l0.2-0.6L237.6,163.3z"/>
</g>
</svg>
