<svg width="287" height="245" viewBox="0 0 287 245" fill="none" xmlns="http://www.w3.org/2000/svg">
<path d="M86.8344 16.9675L108.585 3L120.442 25.9912L146.249 24.7833L145.052 50.6384L168 62.526L154.059 84.3172L168 106.101L145.052 117.988L146.249 143.843L120.442 142.635L108.585 165.626L86.8344 151.659L65.0838 165.626L53.2263 142.635L27.4194 143.843L28.6172 117.988L5.66882 106.101L19.6103 84.3172L5.66882 62.526L28.6172 50.6384L27.4194 24.7833L53.2263 25.9912L65.0838 3L86.8344 16.9675Z" stroke="#0C69CF" stroke-width="4" stroke-miterlimit="10"/>
<path d="M86.8901 134.028C114.231 134.028 136.396 111.822 136.396 84.4293C136.396 57.0369 114.231 34.8309 86.8901 34.8309C59.5488 34.8309 37.3843 57.0369 37.3843 84.4293C37.3843 111.822 59.5488 134.028 86.8901 134.028Z" stroke="#0C69CF" stroke-width="4" stroke-miterlimit="10"/>
<path d="M46.5031 154.307L31.851 154.987L4 220.089L36.3944 205.281L48.0282 239L76.9093 171.506L60.7401 181.89L46.5031 154.307Z" stroke="#0C69CF" stroke-width="4" stroke-miterlimit="10"/>
<path d="M112.929 181.89L92.5198 168.786L122.567 239L134.2 205.281L166.595 220.089L138.68 154.843L127.166 154.307L112.929 181.89Z" stroke="#0C69CF" stroke-width="4" stroke-miterlimit="10"/>
<path d="M191.488 144.864C193.008 144.864 194.28 145.008 195.304 145.296C196.344 145.568 197.12 146.024 197.632 146.664C198.16 147.288 198.424 148.136 198.424 149.208C198.424 149.848 198.32 150.432 198.112 150.96C197.904 151.488 197.6 151.92 197.2 152.256C196.816 152.592 196.344 152.808 195.784 152.904V153.024C196.36 153.136 196.88 153.336 197.344 153.624C197.808 153.912 198.176 154.328 198.448 154.872C198.72 155.416 198.856 156.136 198.856 157.032C198.856 158.072 198.6 158.968 198.088 159.72C197.592 160.456 196.872 161.024 195.928 161.424C194.984 161.808 193.864 162 192.568 162H186.16V144.864H191.488ZM191.896 151.656C192.952 151.656 193.68 151.488 194.08 151.152C194.496 150.816 194.704 150.328 194.704 149.688C194.704 149.032 194.464 148.56 193.984 148.272C193.504 147.984 192.744 147.84 191.704 147.84H189.784V151.656H191.896ZM189.784 154.536V159H192.16C193.248 159 194.008 158.792 194.44 158.376C194.872 157.944 195.088 157.376 195.088 156.672C195.088 156.24 194.992 155.864 194.8 155.544C194.624 155.224 194.312 154.976 193.864 154.8C193.416 154.624 192.808 154.536 192.04 154.536H189.784ZM207.973 162H204.397V143.76H207.973V162ZM226.134 148.896V162H223.398L222.917 160.32H222.725C222.453 160.768 222.101 161.136 221.669 161.424C221.253 161.696 220.789 161.896 220.277 162.024C219.765 162.168 219.237 162.24 218.693 162.24C217.765 162.24 216.949 162.072 216.245 161.736C215.541 161.4 214.997 160.88 214.613 160.176C214.229 159.472 214.037 158.56 214.037 157.44V148.896H217.613V156.552C217.613 157.48 217.781 158.184 218.117 158.664C218.453 159.144 218.989 159.384 219.725 159.384C220.461 159.384 221.029 159.216 221.429 158.88C221.845 158.544 222.133 158.056 222.293 157.416C222.469 156.776 222.557 155.992 222.557 155.064V148.896H226.134ZM237.683 148.656C238.899 148.656 239.939 148.888 240.803 149.352C241.683 149.816 242.363 150.488 242.843 151.368C243.323 152.248 243.563 153.328 243.563 154.608V156.336H235.115C235.147 157.344 235.443 158.136 236.003 158.712C236.579 159.288 237.371 159.576 238.379 159.576C239.227 159.576 239.995 159.496 240.683 159.336C241.371 159.16 242.083 158.896 242.819 158.544V161.304C242.179 161.624 241.499 161.856 240.779 162C240.075 162.16 239.219 162.24 238.211 162.24C236.899 162.24 235.739 162 234.731 161.52C233.723 161.024 232.931 160.28 232.355 159.288C231.779 158.296 231.491 157.048 231.491 155.544C231.491 154.008 231.747 152.736 232.259 151.728C232.787 150.704 233.515 149.936 234.443 149.424C235.371 148.912 236.451 148.656 237.683 148.656ZM237.707 151.2C237.019 151.2 236.443 151.424 235.979 151.872C235.531 152.32 235.267 153.016 235.187 153.96H240.203C240.203 153.432 240.107 152.96 239.915 152.544C239.739 152.128 239.467 151.8 239.099 151.56C238.731 151.32 238.267 151.2 237.707 151.2ZM201.712 189.408C201.712 190.688 201.56 191.856 201.256 192.912C200.952 193.968 200.488 194.888 199.864 195.672C199.24 196.44 198.448 197.04 197.488 197.472L201.616 202.08H196.96L193.816 198.24C193.768 198.24 193.72 198.24 193.672 198.24C193.64 198.24 193.6 198.24 193.552 198.24C192.16 198.24 190.944 198.032 189.904 197.616C188.88 197.184 188.032 196.584 187.36 195.816C186.704 195.032 186.208 194.096 185.872 193.008C185.552 191.92 185.392 190.712 185.392 189.384C185.392 187.608 185.68 186.064 186.256 184.752C186.848 183.44 187.744 182.424 188.944 181.704C190.16 180.968 191.704 180.6 193.576 180.6C195.432 180.6 196.96 180.968 198.16 181.704C199.36 182.424 200.248 183.448 200.824 184.776C201.416 186.088 201.712 187.632 201.712 189.408ZM189.208 189.408C189.208 190.608 189.36 191.64 189.664 192.504C189.968 193.368 190.44 194.032 191.08 194.496C191.72 194.96 192.544 195.192 193.552 195.192C194.592 195.192 195.424 194.96 196.048 194.496C196.688 194.032 197.152 193.368 197.44 192.504C197.744 191.64 197.896 190.608 197.896 189.408C197.896 187.6 197.56 186.184 196.888 185.16C196.216 184.136 195.112 183.624 193.576 183.624C192.552 183.624 191.72 183.856 191.08 184.32C190.44 184.784 189.968 185.448 189.664 186.312C189.36 187.176 189.208 188.208 189.208 189.408ZM219.398 184.896V198H216.662L216.182 196.32H215.99C215.718 196.768 215.366 197.136 214.934 197.424C214.518 197.696 214.054 197.896 213.542 198.024C213.03 198.168 212.502 198.24 211.958 198.24C211.03 198.24 210.214 198.072 209.51 197.736C208.806 197.4 208.262 196.88 207.878 196.176C207.494 195.472 207.302 194.56 207.302 193.44V184.896H210.878V192.552C210.878 193.48 211.046 194.184 211.382 194.664C211.718 195.144 212.254 195.384 212.99 195.384C213.726 195.384 214.294 195.216 214.694 194.88C215.11 194.544 215.398 194.056 215.558 193.416C215.734 192.776 215.822 191.992 215.822 191.064V184.896H219.398ZM230.923 184.632C232.683 184.632 234.027 185.016 234.955 185.784C235.899 186.536 236.371 187.696 236.371 189.264V198H233.875L233.179 196.224H233.083C232.715 196.688 232.331 197.072 231.931 197.376C231.547 197.68 231.099 197.896 230.587 198.024C230.091 198.168 229.475 198.24 228.739 198.24C227.971 198.24 227.275 198.096 226.651 197.808C226.043 197.504 225.563 197.048 225.211 196.44C224.859 195.816 224.683 195.032 224.683 194.088C224.683 192.696 225.171 191.672 226.147 191.016C227.123 190.344 228.587 189.976 230.539 189.912L232.819 189.84V189.264C232.819 188.576 232.635 188.072 232.267 187.752C231.915 187.432 231.419 187.272 230.779 187.272C230.139 187.272 229.515 187.368 228.907 187.56C228.299 187.736 227.691 187.96 227.083 188.232L225.907 185.808C226.611 185.44 227.387 185.152 228.235 184.944C229.099 184.736 229.995 184.632 230.923 184.632ZM231.427 191.976C230.275 192.008 229.475 192.216 229.027 192.6C228.579 192.984 228.355 193.488 228.355 194.112C228.355 194.656 228.515 195.048 228.835 195.288C229.155 195.512 229.571 195.624 230.083 195.624C230.851 195.624 231.499 195.4 232.027 194.952C232.555 194.488 232.819 193.84 232.819 193.008V191.928L231.427 191.976ZM246.007 198H242.431V179.76H246.007V198ZM255.72 184.896V198H252.144V184.896H255.72ZM253.944 179.76C254.472 179.76 254.928 179.888 255.312 180.144C255.696 180.384 255.888 180.84 255.888 181.512C255.888 182.168 255.696 182.624 255.312 182.88C254.928 183.136 254.472 183.264 253.944 183.264C253.4 183.264 252.936 183.136 252.552 182.88C252.184 182.624 252 182.168 252 181.512C252 180.84 252.184 180.384 252.552 180.144C252.936 179.888 253.4 179.76 253.944 179.76ZM267.376 195.384C267.776 195.384 268.16 195.344 268.528 195.264C268.896 195.184 269.264 195.088 269.632 194.976V197.64C269.248 197.8 268.768 197.936 268.192 198.048C267.632 198.176 267.016 198.24 266.344 198.24C265.56 198.24 264.856 198.112 264.232 197.856C263.624 197.6 263.136 197.16 262.768 196.536C262.416 195.896 262.24 195.016 262.24 193.896V187.584H260.536V186.072L262.504 184.872L263.536 182.112H265.816V184.896H269.488V187.584H265.816V193.896C265.816 194.392 265.96 194.768 266.248 195.024C266.536 195.264 266.912 195.384 267.376 195.384ZM272.791 184.896H276.703L279.175 192.264C279.255 192.504 279.319 192.744 279.367 192.984C279.431 193.224 279.479 193.472 279.511 193.728C279.559 193.984 279.591 194.256 279.607 194.544H279.679C279.727 194.128 279.791 193.736 279.871 193.368C279.967 192.984 280.071 192.616 280.183 192.264L282.607 184.896H286.447L280.903 199.68C280.567 200.576 280.127 201.328 279.583 201.936C279.055 202.544 278.439 203 277.735 203.304C277.031 203.608 276.263 203.76 275.431 203.76C275.031 203.76 274.679 203.736 274.375 203.688C274.087 203.656 273.831 203.616 273.607 203.568V200.736C273.783 200.768 273.991 200.8 274.231 200.832C274.487 200.864 274.751 200.88 275.023 200.88C275.519 200.88 275.943 200.776 276.295 200.568C276.663 200.36 276.967 200.072 277.207 199.704C277.447 199.352 277.639 198.968 277.783 198.552L277.999 197.904L272.791 184.896Z" fill="#0C69CF"/>
</svg>
