<svg width="171" height="245" viewBox="0 0 171 245" fill="none" xmlns="http://www.w3.org/2000/svg">
<path d="M86.8345 16.9675L108.585 3L120.443 25.9912L146.249 24.7833L145.052 50.6384L168 62.526L154.059 84.3172L168 106.101L145.052 117.988L146.249 143.843L120.443 142.635L108.585 165.626L86.8345 151.659L65.0839 165.626L53.2265 142.635L27.4196 143.843L28.6173 117.988L5.66895 106.101L19.6104 84.3172L5.66895 62.526L28.6173 50.6384L27.4196 24.7833L53.2265 25.9912L65.0839 3L86.8345 16.9675Z" stroke="#0C69CF" stroke-width="4" stroke-miterlimit="10"/>
<path d="M86.8906 134.028C114.232 134.028 136.396 111.822 136.396 84.4294C136.396 57.037 114.232 34.8311 86.8906 34.8311C59.5493 34.8311 37.3848 57.037 37.3848 84.4294C37.3848 111.822 59.5493 134.028 86.8906 134.028Z" stroke="#0C69CF" stroke-width="4" stroke-miterlimit="10"/>
<path d="M46.5031 154.307L31.851 154.987L4 220.089L36.3944 205.281L48.0282 239L76.9093 171.506L60.7401 181.89L46.5031 154.307Z" stroke="#0C69CF" stroke-width="4" stroke-miterlimit="10"/>
<path d="M112.929 181.89L92.5195 168.786L122.566 239L134.2 205.281L166.595 220.089L138.68 154.843L127.166 154.307L112.929 181.89Z" stroke="#0C69CF" stroke-width="4" stroke-miterlimit="10"/>
</svg>
