<svg width="214" height="244" viewBox="0 0 214 244" fill="none" xmlns="http://www.w3.org/2000/svg">
<path d="M158.164 158.33C155.54 158.33 152.975 158.13 150.471 157.77V242H165.848V157.77C163.353 158.13 160.789 158.33 158.164 158.33Z" stroke="#8DB842" stroke-width="4" stroke-miterlimit="10" stroke-linecap="round" stroke-linejoin="round"/>
<path d="M68.627 177.01V242H83.7444V177.01C81.2797 177.41 78.7552 177.62 76.1907 177.62C73.6262 177.62 71.0917 177.4 68.627 177.01Z" stroke="#8DB842" stroke-width="4" stroke-miterlimit="10" stroke-linecap="round" stroke-linejoin="round"/>
<path d="M208.436 85.27L183.479 19.49C179.478 8.96 169.409 2 158.164 2C146.918 2 136.85 8.96 132.848 19.49L107.892 85.27C106.894 87.91 106.116 90.56 105.547 93.21C116.433 101.88 123.428 115.26 123.428 130.28C123.428 134.99 122.73 139.54 121.453 143.83C130.912 152.73 143.675 158.33 158.174 158.33C195.823 158.33 221.827 120.55 208.436 85.27Z" stroke="#8DB842" stroke-width="4" stroke-miterlimit="10" stroke-linecap="round" stroke-linejoin="round"/>
<path d="M63.7971 35.8599C63.2482 35.8599 62.6994 35.8899 62.1606 35.9399C60.7636 24.3499 50.9247 15.3799 38.9804 15.3799C26.0782 15.3799 15.6207 25.8599 15.6207 38.7899C15.6207 40.8599 15.8901 42.8699 16.399 44.7799C15.8302 44.6999 15.2415 44.6499 14.6528 44.6499C7.66781 44.6399 2 50.3199 2 57.3199C2 64.3199 7.66781 69.9999 14.6528 69.9999H63.3181V69.9799C63.4777 69.9799 63.6374 69.9999 63.807 69.9999C73.2068 69.9999 80.8304 62.3599 80.8304 52.9299C80.8304 43.4999 73.2068 35.8599 63.7971 35.8599Z" stroke="#8DB842" stroke-width="4" stroke-miterlimit="10" stroke-linecap="round" stroke-linejoin="round"/>
<path d="M76.1808 177.62C102.27 177.62 123.419 156.425 123.419 130.28C123.419 104.135 102.27 82.9399 76.1808 82.9399C50.0917 82.9399 28.9424 104.135 28.9424 130.28C28.9424 156.425 50.0917 177.62 76.1808 177.62Z" stroke="#8DB842" stroke-width="4" stroke-miterlimit="10" stroke-linecap="round" stroke-linejoin="round"/>
</svg>
