<svg width="378" height="244" viewBox="0 0 378 244" fill="none" xmlns="http://www.w3.org/2000/svg">
<path d="M158.164 158.33C155.54 158.33 152.975 158.13 150.471 157.77V242H165.848V157.77C163.353 158.13 160.788 158.33 158.164 158.33Z" stroke="#8DB842" stroke-width="4" stroke-miterlimit="10" stroke-linecap="round" stroke-linejoin="round"/>
<path d="M68.6267 177.01V242H83.7442V177.01C81.2795 177.41 78.7549 177.62 76.1904 177.62C73.6259 177.62 71.0914 177.4 68.6267 177.01Z" stroke="#8DB842" stroke-width="4" stroke-miterlimit="10" stroke-linecap="round" stroke-linejoin="round"/>
<path d="M208.436 85.27L183.48 19.49C179.478 8.96 169.41 2 158.164 2C146.918 2 136.85 8.96 132.849 19.49L107.892 85.27C106.894 87.91 106.116 90.56 105.547 93.21C116.434 101.88 123.429 115.26 123.429 130.28C123.429 134.99 122.73 139.54 121.453 143.83C130.913 152.73 143.675 158.33 158.174 158.33C195.823 158.33 221.827 120.55 208.436 85.27Z" stroke="#8DB842" stroke-width="4" stroke-miterlimit="10" stroke-linecap="round" stroke-linejoin="round"/>
<path d="M63.7971 35.8599C63.2482 35.8599 62.6994 35.8899 62.1606 35.9399C60.7636 24.3499 50.9247 15.3799 38.9804 15.3799C26.0782 15.3799 15.6207 25.8599 15.6207 38.7899C15.6207 40.8599 15.8901 42.8699 16.399 44.7799C15.8302 44.6999 15.2415 44.6499 14.6528 44.6499C7.66781 44.6399 2 50.3199 2 57.3199C2 64.3199 7.66781 69.9999 14.6528 69.9999H63.3181V69.9799C63.4777 69.9799 63.6374 69.9999 63.807 69.9999C73.2068 69.9999 80.8304 62.3599 80.8304 52.9299C80.8304 43.4999 73.2068 35.8599 63.7971 35.8599Z" stroke="#8DB842" stroke-width="4" stroke-miterlimit="10" stroke-linecap="round" stroke-linejoin="round"/>
<path d="M76.1804 177.62C102.269 177.62 123.419 156.425 123.419 130.28C123.419 104.135 102.269 82.9399 76.1804 82.9399C50.0914 82.9399 28.942 104.135 28.942 130.28C28.942 156.425 50.0914 177.62 76.1804 177.62Z" stroke="#8DB842" stroke-width="4" stroke-miterlimit="10" stroke-linecap="round" stroke-linejoin="round"/>
<path d="M235.22 152.98H240.88V160.38C240.133 160.633 239.353 160.833 238.54 160.98C237.74 161.127 236.827 161.2 235.8 161.2C234.387 161.2 233.18 160.92 232.18 160.36C231.193 159.8 230.44 158.973 229.92 157.88C229.413 156.787 229.16 155.44 229.16 153.84C229.16 152.347 229.447 151.053 230.02 149.96C230.607 148.867 231.453 148.02 232.56 147.42C233.667 146.82 235.02 146.52 236.62 146.52C237.38 146.52 238.127 146.6 238.86 146.76C239.593 146.92 240.26 147.133 240.86 147.4L239.86 149.82C239.42 149.593 238.92 149.407 238.36 149.26C237.8 149.113 237.213 149.04 236.6 149.04C235.72 149.04 234.953 149.24 234.3 149.64C233.66 150.04 233.16 150.607 232.8 151.34C232.453 152.06 232.28 152.913 232.28 153.9C232.28 154.833 232.407 155.66 232.66 156.38C232.913 157.1 233.313 157.667 233.86 158.08C234.407 158.48 235.12 158.68 236 158.68C236.293 158.68 236.547 158.673 236.76 158.66C236.987 158.633 237.193 158.607 237.38 158.58C237.567 158.54 237.747 158.507 237.92 158.48V155.5H235.22V152.98ZM252.133 149.88C252.279 149.88 252.453 149.887 252.653 149.9C252.853 149.913 253.013 149.933 253.133 149.96L252.913 152.76C252.819 152.733 252.679 152.713 252.493 152.7C252.319 152.673 252.166 152.66 252.033 152.66C251.646 152.66 251.273 152.713 250.913 152.82C250.553 152.913 250.226 153.067 249.933 153.28C249.653 153.493 249.426 153.78 249.253 154.14C249.093 154.487 249.013 154.92 249.013 155.44V161H246.033V150.08H248.293L248.733 151.92H248.873C249.086 151.547 249.353 151.207 249.673 150.9C249.993 150.593 250.359 150.347 250.773 150.16C251.199 149.973 251.653 149.88 252.133 149.88ZM261.224 149.88C262.237 149.88 263.104 150.073 263.824 150.46C264.557 150.847 265.124 151.407 265.524 152.14C265.924 152.873 266.124 153.773 266.124 154.84V156.28H259.084C259.111 157.12 259.357 157.78 259.824 158.26C260.304 158.74 260.964 158.98 261.804 158.98C262.511 158.98 263.151 158.913 263.724 158.78C264.297 158.633 264.891 158.413 265.504 158.12V160.42C264.971 160.687 264.404 160.88 263.804 161C263.217 161.133 262.504 161.2 261.664 161.2C260.571 161.2 259.604 161 258.764 160.6C257.924 160.187 257.264 159.567 256.784 158.74C256.304 157.913 256.064 156.873 256.064 155.62C256.064 154.34 256.277 153.28 256.704 152.44C257.144 151.587 257.751 150.947 258.524 150.52C259.297 150.093 260.197 149.88 261.224 149.88ZM261.244 152C260.671 152 260.191 152.187 259.804 152.56C259.431 152.933 259.211 153.513 259.144 154.3H263.324C263.324 153.86 263.244 153.467 263.084 153.12C262.937 152.773 262.711 152.5 262.404 152.3C262.097 152.1 261.711 152 261.244 152ZM275.04 149.88C276.054 149.88 276.92 150.073 277.64 150.46C278.374 150.847 278.94 151.407 279.34 152.14C279.74 152.873 279.94 153.773 279.94 154.84V156.28H272.9C272.927 157.12 273.174 157.78 273.64 158.26C274.12 158.74 274.78 158.98 275.62 158.98C276.327 158.98 276.967 158.913 277.54 158.78C278.114 158.633 278.707 158.413 279.32 158.12V160.42C278.787 160.687 278.22 160.88 277.62 161C277.034 161.133 276.32 161.2 275.48 161.2C274.387 161.2 273.42 161 272.58 160.6C271.74 160.187 271.08 159.567 270.6 158.74C270.12 157.913 269.88 156.873 269.88 155.62C269.88 154.34 270.094 153.28 270.52 152.44C270.96 151.587 271.567 150.947 272.34 150.52C273.114 150.093 274.014 149.88 275.04 149.88ZM275.06 152C274.487 152 274.007 152.187 273.62 152.56C273.247 152.933 273.027 153.513 272.96 154.3H277.14C277.14 153.86 277.06 153.467 276.9 153.12C276.754 152.773 276.527 152.5 276.22 152.3C275.914 152.1 275.527 152 275.06 152ZM290.557 149.88C291.73 149.88 292.67 150.2 293.377 150.84C294.084 151.467 294.437 152.48 294.437 153.88V161H291.457V154.62C291.457 153.833 291.317 153.247 291.037 152.86C290.757 152.46 290.31 152.26 289.697 152.26C288.79 152.26 288.17 152.573 287.837 153.2C287.504 153.813 287.337 154.7 287.337 155.86V161H284.357V150.08H286.637L287.037 151.48H287.197C287.437 151.107 287.73 150.807 288.077 150.58C288.424 150.34 288.81 150.167 289.237 150.06C289.664 149.94 290.104 149.88 290.557 149.88ZM238.02 191H229.8V176.72H238.02V179.2H232.82V182.34H237.66V184.82H232.82V188.5H238.02V191ZM248.951 179.88C250.125 179.88 251.065 180.2 251.771 180.84C252.478 181.467 252.831 182.48 252.831 183.88V191H249.851V184.62C249.851 183.833 249.711 183.247 249.431 182.86C249.151 182.46 248.705 182.26 248.091 182.26C247.185 182.26 246.565 182.573 246.231 183.2C245.898 183.813 245.731 184.7 245.731 185.86V191H242.751V180.08H245.031L245.431 181.48H245.591C245.831 181.107 246.125 180.807 246.471 180.58C246.818 180.34 247.205 180.167 247.631 180.06C248.058 179.94 248.498 179.88 248.951 179.88ZM260.496 191L256.336 180.08H259.456L261.556 186.3C261.636 186.54 261.703 186.793 261.756 187.06C261.823 187.327 261.869 187.587 261.896 187.84C261.936 188.093 261.963 188.327 261.976 188.54H262.056C262.069 188.313 262.096 188.073 262.136 187.82C262.176 187.567 262.223 187.313 262.276 187.06C262.343 186.793 262.416 186.54 262.496 186.3L264.596 180.08H267.716L263.556 191H260.496ZM274.263 180.08V191H271.283V180.08H274.263ZM272.783 175.8C273.223 175.8 273.603 175.907 273.923 176.12C274.243 176.32 274.403 176.7 274.403 177.26C274.403 177.807 274.243 178.187 273.923 178.4C273.603 178.613 273.223 178.72 272.783 178.72C272.329 178.72 271.943 178.613 271.623 178.4C271.316 178.187 271.163 177.807 271.163 177.26C271.163 176.7 271.316 176.32 271.623 176.12C271.943 175.907 272.329 175.8 272.783 175.8ZM285.476 179.88C285.623 179.88 285.796 179.887 285.996 179.9C286.196 179.913 286.356 179.933 286.476 179.96L286.256 182.76C286.163 182.733 286.023 182.713 285.836 182.7C285.663 182.673 285.51 182.66 285.376 182.66C284.99 182.66 284.616 182.713 284.256 182.82C283.896 182.913 283.57 183.067 283.276 183.28C282.996 183.493 282.77 183.78 282.596 184.14C282.436 184.487 282.356 184.92 282.356 185.44V191H279.376V180.08H281.636L282.076 181.92H282.216C282.43 181.547 282.696 181.207 283.016 180.9C283.336 180.593 283.703 180.347 284.116 180.16C284.543 179.973 284.996 179.88 285.476 179.88ZM299.988 185.52C299.988 186.427 299.861 187.233 299.608 187.94C299.368 188.647 299.014 189.247 298.548 189.74C298.094 190.22 297.541 190.587 296.888 190.84C296.234 191.08 295.494 191.2 294.668 191.2C293.908 191.2 293.201 191.08 292.548 190.84C291.908 190.587 291.354 190.22 290.888 189.74C290.421 189.247 290.054 188.647 289.788 187.94C289.534 187.233 289.408 186.427 289.408 185.52C289.408 184.307 289.621 183.287 290.048 182.46C290.474 181.62 291.088 180.98 291.888 180.54C292.688 180.1 293.634 179.88 294.728 179.88C295.754 179.88 296.661 180.1 297.448 180.54C298.234 180.98 298.854 181.62 299.308 182.46C299.761 183.287 299.988 184.307 299.988 185.52ZM292.448 185.52C292.448 186.24 292.521 186.847 292.668 187.34C292.828 187.82 293.074 188.187 293.408 188.44C293.741 188.68 294.174 188.8 294.708 188.8C295.241 188.8 295.668 188.68 295.988 188.44C296.321 188.187 296.561 187.82 296.708 187.34C296.868 186.847 296.948 186.24 296.948 185.52C296.948 184.8 296.868 184.2 296.708 183.72C296.561 183.24 296.321 182.88 295.988 182.64C295.654 182.4 295.221 182.28 294.688 182.28C293.901 182.28 293.328 182.553 292.968 183.1C292.621 183.633 292.448 184.44 292.448 185.52ZM310.651 179.88C311.824 179.88 312.764 180.2 313.471 180.84C314.177 181.467 314.531 182.48 314.531 183.88V191H311.551V184.62C311.551 183.833 311.411 183.247 311.131 182.86C310.851 182.46 310.404 182.26 309.791 182.26C308.884 182.26 308.264 182.573 307.931 183.2C307.597 183.813 307.431 184.7 307.431 185.86V191H304.451V180.08H306.731L307.131 181.48H307.291C307.531 181.107 307.824 180.807 308.171 180.58C308.517 180.34 308.904 180.167 309.331 180.06C309.757 179.94 310.197 179.88 310.651 179.88ZM332.415 179.88C333.655 179.88 334.588 180.2 335.215 180.84C335.855 181.467 336.175 182.48 336.175 183.88V191H333.195V184.62C333.195 183.833 333.062 183.247 332.795 182.86C332.528 182.46 332.115 182.26 331.555 182.26C330.768 182.26 330.208 182.54 329.875 183.1C329.542 183.66 329.375 184.467 329.375 185.52V191H326.395V184.62C326.395 184.1 326.335 183.667 326.215 183.32C326.095 182.973 325.915 182.713 325.675 182.54C325.435 182.353 325.128 182.26 324.755 182.26C324.208 182.26 323.775 182.4 323.455 182.68C323.135 182.96 322.908 183.367 322.775 183.9C322.642 184.433 322.575 185.087 322.575 185.86V191H319.595V180.08H321.875L322.275 181.48H322.435C322.662 181.107 322.942 180.807 323.275 180.58C323.608 180.34 323.975 180.167 324.375 180.06C324.788 179.94 325.202 179.88 325.615 179.88C326.415 179.88 327.095 180.013 327.655 180.28C328.215 180.533 328.642 180.933 328.935 181.48H329.195C329.528 180.92 329.988 180.513 330.575 180.26C331.175 180.007 331.788 179.88 332.415 179.88ZM345.744 179.88C346.757 179.88 347.624 180.073 348.344 180.46C349.077 180.847 349.644 181.407 350.044 182.14C350.444 182.873 350.644 183.773 350.644 184.84V186.28H343.604C343.63 187.12 343.877 187.78 344.344 188.26C344.824 188.74 345.484 188.98 346.324 188.98C347.03 188.98 347.67 188.913 348.244 188.78C348.817 188.633 349.41 188.413 350.024 188.12V190.42C349.49 190.687 348.924 190.88 348.324 191C347.737 191.133 347.024 191.2 346.184 191.2C345.09 191.2 344.124 191 343.284 190.6C342.444 190.187 341.784 189.567 341.304 188.74C340.824 187.913 340.584 186.873 340.584 185.62C340.584 184.34 340.797 183.28 341.224 182.44C341.664 181.587 342.27 180.947 343.044 180.52C343.817 180.093 344.717 179.88 345.744 179.88ZM345.764 182C345.19 182 344.71 182.187 344.324 182.56C343.95 182.933 343.73 183.513 343.664 184.3H347.844C347.844 183.86 347.764 183.467 347.604 183.12C347.457 182.773 347.23 182.5 346.924 182.3C346.617 182.1 346.23 182 345.764 182ZM361.26 179.88C362.433 179.88 363.373 180.2 364.08 180.84C364.787 181.467 365.14 182.48 365.14 183.88V191H362.16V184.62C362.16 183.833 362.02 183.247 361.74 182.86C361.46 182.46 361.013 182.26 360.4 182.26C359.493 182.26 358.873 182.573 358.54 183.2C358.207 183.813 358.04 184.7 358.04 185.86V191H355.06V180.08H357.34L357.74 181.48H357.9C358.14 181.107 358.433 180.807 358.78 180.58C359.127 180.34 359.513 180.167 359.94 180.06C360.367 179.94 360.807 179.88 361.26 179.88ZM374.805 188.82C375.138 188.82 375.458 188.787 375.765 188.72C376.071 188.653 376.378 188.573 376.685 188.48V190.7C376.365 190.833 375.965 190.947 375.485 191.04C375.018 191.147 374.505 191.2 373.945 191.2C373.291 191.2 372.705 191.093 372.185 190.88C371.678 190.667 371.271 190.3 370.965 189.78C370.671 189.247 370.525 188.513 370.525 187.58V182.32H369.105V181.06L370.745 180.06L371.605 177.76H373.505V180.08H376.565V182.32H373.505V187.58C373.505 187.993 373.625 188.307 373.865 188.52C374.105 188.72 374.418 188.82 374.805 188.82Z" fill="#8DB842"/>
</svg>
