<svg width="313" height="206" viewBox="0 0 313 206" fill="none" xmlns="http://www.w3.org/2000/svg">
<path d="M92 203C195.417 168.42 181.357 52.91 181.357 52.91C159.728 11.13 92 3 92 3C92 3 24.2719 11.13 2.64252 52.92C2.64252 52.92 -11.4171 168.42 92 203Z" stroke="#01B9CA" stroke-width="4" stroke-miterlimit="10"/>
<path d="M92.0001 183C174.728 155.33 163.488 62.93 163.488 62.93C146.179 29.51 92.0001 23 92.0001 23C92.0001 23 37.8217 29.5 20.5122 62.93C20.5122 62.93 9.27247 155.34 92.0001 183Z" stroke="#01B9CA" stroke-width="4" stroke-miterlimit="10"/>
<path d="M205.632 108.864C207.84 108.864 209.448 109.344 210.456 110.304C211.48 111.248 211.992 112.552 211.992 114.216C211.992 114.968 211.88 115.688 211.656 116.376C211.432 117.048 211.056 117.656 210.528 118.2C210.016 118.728 209.336 119.144 208.488 119.448C207.64 119.752 206.592 119.904 205.344 119.904H203.784V126H200.16V108.864H205.632ZM205.44 111.84H203.784V116.928H204.984C205.672 116.928 206.264 116.84 206.76 116.664C207.256 116.488 207.64 116.208 207.912 115.824C208.184 115.44 208.32 114.944 208.32 114.336C208.32 113.488 208.088 112.864 207.624 112.464C207.16 112.048 206.432 111.84 205.44 111.84ZM222.742 112.656C223.958 112.656 224.998 112.888 225.862 113.352C226.742 113.816 227.422 114.488 227.902 115.368C228.382 116.248 228.622 117.328 228.622 118.608V120.336H220.174C220.206 121.344 220.502 122.136 221.062 122.712C221.638 123.288 222.43 123.576 223.438 123.576C224.286 123.576 225.054 123.496 225.742 123.336C226.43 123.16 227.142 122.896 227.878 122.544V125.304C227.238 125.624 226.558 125.856 225.838 126C225.134 126.16 224.278 126.24 223.27 126.24C221.958 126.24 220.798 126 219.79 125.52C218.782 125.024 217.99 124.28 217.414 123.288C216.838 122.296 216.55 121.048 216.55 119.544C216.55 118.008 216.806 116.736 217.318 115.728C217.846 114.704 218.574 113.936 219.502 113.424C220.43 112.912 221.51 112.656 222.742 112.656ZM222.766 115.2C222.078 115.2 221.502 115.424 221.038 115.872C220.59 116.32 220.326 117.016 220.246 117.96H225.262C225.262 117.432 225.166 116.96 224.974 116.544C224.798 116.128 224.526 115.8 224.158 115.56C223.79 115.32 223.326 115.2 222.766 115.2ZM241.242 112.656C241.418 112.656 241.626 112.664 241.866 112.68C242.106 112.696 242.298 112.72 242.442 112.752L242.178 116.112C242.066 116.08 241.898 116.056 241.674 116.04C241.466 116.008 241.282 115.992 241.122 115.992C240.658 115.992 240.21 116.056 239.778 116.184C239.346 116.296 238.954 116.48 238.602 116.736C238.266 116.992 237.994 117.336 237.786 117.768C237.594 118.184 237.498 118.704 237.498 119.328V126H233.922V112.896H236.634L237.162 115.104H237.33C237.586 114.656 237.906 114.248 238.29 113.88C238.674 113.512 239.114 113.216 239.61 112.992C240.122 112.768 240.666 112.656 241.242 112.656ZM254.468 115.584H251.372V126H247.796V115.584H245.828V113.856L247.796 112.896V111.936C247.796 110.816 247.98 109.952 248.348 109.344C248.732 108.72 249.268 108.28 249.956 108.024C250.66 107.768 251.484 107.64 252.428 107.64C253.132 107.64 253.764 107.696 254.324 107.808C254.9 107.92 255.364 108.048 255.716 108.192L254.804 110.808C254.532 110.728 254.236 110.656 253.916 110.592C253.596 110.512 253.228 110.472 252.812 110.472C252.316 110.472 251.948 110.624 251.708 110.928C251.484 111.232 251.372 111.616 251.372 112.08V112.896H254.468V115.584ZM264.302 112.656C265.518 112.656 266.558 112.888 267.422 113.352C268.302 113.816 268.982 114.488 269.462 115.368C269.942 116.248 270.182 117.328 270.182 118.608V120.336H261.734C261.766 121.344 262.062 122.136 262.622 122.712C263.198 123.288 263.99 123.576 264.998 123.576C265.846 123.576 266.614 123.496 267.302 123.336C267.99 123.16 268.702 122.896 269.438 122.544V125.304C268.798 125.624 268.118 125.856 267.398 126C266.694 126.16 265.838 126.24 264.83 126.24C263.518 126.24 262.358 126 261.35 125.52C260.342 125.024 259.55 124.28 258.974 123.288C258.398 122.296 258.11 121.048 258.11 119.544C258.11 118.008 258.366 116.736 258.878 115.728C259.406 114.704 260.134 113.936 261.062 113.424C261.99 112.912 263.07 112.656 264.302 112.656ZM264.326 115.2C263.638 115.2 263.062 115.424 262.598 115.872C262.15 116.32 261.886 117.016 261.806 117.96H266.822C266.822 117.432 266.726 116.96 266.534 116.544C266.358 116.128 266.086 115.8 265.718 115.56C265.35 115.32 264.886 115.2 264.326 115.2ZM280.809 126.24C279.513 126.24 278.409 126.008 277.497 125.544C276.585 125.064 275.889 124.328 275.409 123.336C274.929 122.344 274.689 121.072 274.689 119.52C274.689 117.92 274.961 116.616 275.505 115.608C276.049 114.6 276.801 113.856 277.761 113.376C278.737 112.896 279.857 112.656 281.121 112.656C282.017 112.656 282.793 112.744 283.449 112.92C284.121 113.096 284.705 113.304 285.201 113.544L284.145 116.304C283.585 116.08 283.057 115.896 282.561 115.752C282.081 115.608 281.601 115.536 281.121 115.536C280.497 115.536 279.977 115.688 279.561 115.992C279.145 116.28 278.833 116.72 278.625 117.312C278.433 117.888 278.337 118.616 278.337 119.496C278.337 120.36 278.441 121.08 278.649 121.656C278.873 122.216 279.193 122.64 279.609 122.928C280.025 123.2 280.529 123.336 281.121 123.336C281.873 123.336 282.537 123.24 283.113 123.048C283.689 122.84 284.249 122.56 284.793 122.208V125.256C284.249 125.608 283.673 125.856 283.065 126C282.473 126.16 281.721 126.24 280.809 126.24ZM295.73 123.384C296.13 123.384 296.514 123.344 296.882 123.264C297.25 123.184 297.618 123.088 297.986 122.976V125.64C297.602 125.8 297.122 125.936 296.546 126.048C295.986 126.176 295.37 126.24 294.698 126.24C293.914 126.24 293.21 126.112 292.586 125.856C291.978 125.6 291.49 125.16 291.122 124.536C290.77 123.896 290.594 123.016 290.594 121.896V115.584H288.89V114.072L290.858 112.872L291.89 110.112H294.17V112.896H297.842V115.584H294.17V121.896C294.17 122.392 294.314 122.768 294.602 123.024C294.89 123.264 295.266 123.384 295.73 123.384ZM210.264 157.248C210.264 158.256 210.016 159.136 209.52 159.888C209.024 160.64 208.304 161.224 207.36 161.64C206.432 162.04 205.296 162.24 203.952 162.24C203.36 162.24 202.776 162.2 202.2 162.12C201.64 162.04 201.096 161.928 200.568 161.784C200.056 161.624 199.568 161.432 199.104 161.208V157.824C199.92 158.176 200.76 158.504 201.624 158.808C202.504 159.096 203.376 159.24 204.24 159.24C204.832 159.24 205.304 159.16 205.656 159C206.024 158.84 206.288 158.624 206.448 158.352C206.624 158.08 206.712 157.768 206.712 157.416C206.712 156.984 206.56 156.616 206.256 156.312C205.968 156.008 205.576 155.728 205.08 155.472C204.584 155.2 204.016 154.912 203.376 154.608C202.976 154.416 202.544 154.192 202.08 153.936C201.616 153.664 201.168 153.336 200.736 152.952C200.32 152.552 199.976 152.072 199.704 151.512C199.432 150.952 199.296 150.28 199.296 149.496C199.296 148.472 199.528 147.6 199.992 146.88C200.472 146.144 201.144 145.584 202.008 145.2C202.888 144.816 203.92 144.624 205.104 144.624C206 144.624 206.848 144.728 207.648 144.936C208.464 145.144 209.312 145.44 210.192 145.824L209.016 148.656C208.232 148.336 207.528 148.088 206.904 147.912C206.28 147.736 205.64 147.648 204.984 147.648C204.536 147.648 204.152 147.72 203.832 147.864C203.512 148.008 203.264 148.208 203.088 148.464C202.928 148.72 202.848 149.024 202.848 149.376C202.848 149.776 202.968 150.12 203.208 150.408C203.448 150.68 203.808 150.944 204.288 151.2C204.768 151.456 205.368 151.76 206.088 152.112C206.968 152.528 207.712 152.96 208.32 153.408C208.944 153.856 209.424 154.384 209.76 154.992C210.096 155.6 210.264 156.352 210.264 157.248ZM220.891 148.656C222.107 148.656 223.147 148.888 224.011 149.352C224.891 149.816 225.571 150.488 226.051 151.368C226.531 152.248 226.771 153.328 226.771 154.608V156.336H218.323C218.355 157.344 218.651 158.136 219.211 158.712C219.787 159.288 220.579 159.576 221.587 159.576C222.435 159.576 223.203 159.496 223.891 159.336C224.579 159.16 225.291 158.896 226.027 158.544V161.304C225.387 161.624 224.707 161.856 223.987 162C223.283 162.16 222.427 162.24 221.419 162.24C220.107 162.24 218.947 162 217.939 161.52C216.931 161.024 216.139 160.28 215.563 159.288C214.987 158.296 214.699 157.048 214.699 155.544C214.699 154.008 214.955 152.736 215.467 151.728C215.995 150.704 216.723 149.936 217.651 149.424C218.579 148.912 219.659 148.656 220.891 148.656ZM220.915 151.2C220.227 151.2 219.651 151.424 219.187 151.872C218.739 152.32 218.475 153.016 218.395 153.96H223.411C223.411 153.432 223.315 152.96 223.123 152.544C222.947 152.128 222.675 151.8 222.307 151.56C221.939 151.32 221.475 151.2 220.915 151.2ZM237.398 162.24C236.102 162.24 234.998 162.008 234.086 161.544C233.174 161.064 232.478 160.328 231.998 159.336C231.518 158.344 231.278 157.072 231.278 155.52C231.278 153.92 231.55 152.616 232.094 151.608C232.638 150.6 233.39 149.856 234.35 149.376C235.326 148.896 236.446 148.656 237.71 148.656C238.606 148.656 239.382 148.744 240.038 148.92C240.71 149.096 241.294 149.304 241.79 149.544L240.734 152.304C240.174 152.08 239.646 151.896 239.15 151.752C238.67 151.608 238.19 151.536 237.71 151.536C237.086 151.536 236.566 151.688 236.15 151.992C235.734 152.28 235.422 152.72 235.214 153.312C235.022 153.888 234.926 154.616 234.926 155.496C234.926 156.36 235.03 157.08 235.238 157.656C235.462 158.216 235.782 158.64 236.198 158.928C236.614 159.2 237.118 159.336 237.71 159.336C238.462 159.336 239.126 159.24 239.702 159.048C240.278 158.84 240.838 158.56 241.382 158.208V161.256C240.838 161.608 240.262 161.856 239.654 162C239.062 162.16 238.31 162.24 237.398 162.24ZM258.823 148.896V162H256.087L255.607 160.32H255.415C255.143 160.768 254.791 161.136 254.359 161.424C253.943 161.696 253.479 161.896 252.967 162.024C252.455 162.168 251.927 162.24 251.383 162.24C250.455 162.24 249.639 162.072 248.935 161.736C248.231 161.4 247.687 160.88 247.303 160.176C246.919 159.472 246.727 158.56 246.727 157.44V148.896H250.303V156.552C250.303 157.48 250.471 158.184 250.807 158.664C251.143 159.144 251.679 159.384 252.415 159.384C253.151 159.384 253.719 159.216 254.119 158.88C254.535 158.544 254.823 158.056 254.983 157.416C255.159 156.776 255.247 155.992 255.247 155.064V148.896H258.823ZM272.292 148.656C272.468 148.656 272.676 148.664 272.916 148.68C273.156 148.696 273.348 148.72 273.492 148.752L273.228 152.112C273.116 152.08 272.948 152.056 272.724 152.04C272.516 152.008 272.332 151.992 272.172 151.992C271.708 151.992 271.26 152.056 270.828 152.184C270.396 152.296 270.004 152.48 269.652 152.736C269.316 152.992 269.044 153.336 268.836 153.768C268.644 154.184 268.548 154.704 268.548 155.328V162H264.972V148.896H267.684L268.212 151.104H268.38C268.636 150.656 268.956 150.248 269.34 149.88C269.724 149.512 270.164 149.216 270.66 148.992C271.172 148.768 271.716 148.656 272.292 148.656ZM281.846 148.896V162H278.27V148.896H281.846ZM280.07 143.76C280.598 143.76 281.054 143.888 281.438 144.144C281.822 144.384 282.014 144.84 282.014 145.512C282.014 146.168 281.822 146.624 281.438 146.88C281.054 147.136 280.598 147.264 280.07 147.264C279.526 147.264 279.062 147.136 278.678 146.88C278.31 146.624 278.126 146.168 278.126 145.512C278.126 144.84 278.31 144.384 278.678 144.144C279.062 143.888 279.526 143.76 280.07 143.76ZM293.503 159.384C293.903 159.384 294.287 159.344 294.655 159.264C295.023 159.184 295.391 159.088 295.759 158.976V161.64C295.375 161.8 294.895 161.936 294.319 162.048C293.759 162.176 293.143 162.24 292.471 162.24C291.687 162.24 290.983 162.112 290.359 161.856C289.751 161.6 289.263 161.16 288.895 160.536C288.543 159.896 288.367 159.016 288.367 157.896V151.584H286.663V150.072L288.631 148.872L289.663 146.112H291.943V148.896H295.615V151.584H291.943V157.896C291.943 158.392 292.087 158.768 292.375 159.024C292.663 159.264 293.039 159.384 293.503 159.384ZM298.917 148.896H302.829L305.301 156.264C305.381 156.504 305.445 156.744 305.493 156.984C305.557 157.224 305.605 157.472 305.637 157.728C305.685 157.984 305.717 158.256 305.733 158.544H305.805C305.853 158.128 305.917 157.736 305.997 157.368C306.093 156.984 306.197 156.616 306.309 156.264L308.733 148.896H312.573L307.029 163.68C306.693 164.576 306.253 165.328 305.709 165.936C305.181 166.544 304.565 167 303.861 167.304C303.157 167.608 302.389 167.76 301.557 167.76C301.157 167.76 300.805 167.736 300.501 167.688C300.213 167.656 299.957 167.616 299.733 167.568V164.736C299.909 164.768 300.117 164.8 300.357 164.832C300.613 164.864 300.877 164.88 301.149 164.88C301.645 164.88 302.069 164.776 302.421 164.568C302.789 164.36 303.093 164.072 303.333 163.704C303.573 163.352 303.765 162.968 303.909 162.552L304.125 161.904L298.917 148.896Z" fill="#01B9CA"/>
</svg>
