<svg width="336" height="190" viewBox="0 0 336 190" fill="none" xmlns="http://www.w3.org/2000/svg">
<path d="M112 26V2" stroke="#777777" stroke-width="4" stroke-miterlimit="10" stroke-linecap="round"/>
<path d="M112 172V50" stroke="#777777" stroke-width="4" stroke-miterlimit="10" stroke-linecap="round"/>
<path d="M124 38H193" stroke="#777777" stroke-width="4" stroke-miterlimit="10" stroke-linecap="round"/>
<path d="M33 38H100" stroke="#777777" stroke-width="4" stroke-miterlimit="10" stroke-linecap="round"/>
<path d="M2 101C2 112.05 15.43 121 32 121C48.57 121 62 112.05 62 101H2Z" stroke="#777777" stroke-width="4" stroke-miterlimit="10" stroke-linecap="round"/>
<path d="M33 38L2 101" stroke="#777777" stroke-width="4" stroke-miterlimit="10" stroke-linecap="round"/>
<path d="M62 101L33 38" stroke="#777777" stroke-width="4" stroke-miterlimit="10" stroke-linecap="round"/>
<path d="M162 101C162 112.05 175.43 121 192 121C208.57 121 222 112.05 222 101H162Z" stroke="#777777" stroke-width="4" stroke-miterlimit="10" stroke-linecap="round"/>
<path d="M193 38L162 101" stroke="#777777" stroke-width="4" stroke-miterlimit="10" stroke-linecap="round"/>
<path d="M222 101L193 38" stroke="#777777" stroke-width="4" stroke-miterlimit="10" stroke-linecap="round"/>
<path d="M138.78 172H85.22C79.02 172 74 177.02 74 183.22V184.78C74 186.56 75.44 188 77.22 188H146.78C148.56 188 150 186.56 150 184.78V183.22C150 177.02 144.98 172 138.78 172Z" stroke="#777777" stroke-width="4" stroke-miterlimit="10" stroke-linecap="round"/>
<path d="M112 50C118.627 50 124 44.6274 124 38C124 31.3726 118.627 26 112 26C105.373 26 100 31.3726 100 38C100 44.6274 105.373 50 112 50Z" stroke="#777777" stroke-width="4" stroke-miterlimit="10" stroke-linecap="round"/>
<path d="M269.208 93.864L264.84 111H260.712L258.384 102C258.336 101.824 258.272 101.56 258.192 101.208C258.128 100.856 258.048 100.472 257.952 100.056C257.872 99.64 257.8 99.248 257.736 98.88C257.672 98.496 257.624 98.2 257.592 97.992C257.576 98.2 257.528 98.496 257.448 98.88C257.384 99.248 257.312 99.64 257.232 100.056C257.152 100.456 257.072 100.84 256.992 101.208C256.912 101.56 256.848 101.832 256.8 102.024L254.496 111H250.368L246 93.864H249.576L251.76 103.224C251.824 103.496 251.896 103.832 251.976 104.232C252.056 104.616 252.136 105.024 252.216 105.456C252.296 105.872 252.368 106.28 252.432 106.68C252.512 107.08 252.568 107.424 252.6 107.712C252.632 107.408 252.68 107.064 252.744 106.68C252.808 106.28 252.88 105.88 252.96 105.48C253.04 105.064 253.112 104.68 253.176 104.328C253.256 103.96 253.328 103.672 253.392 103.464L255.888 93.864H259.32L261.816 103.464C261.864 103.672 261.928 103.96 262.008 104.328C262.088 104.68 262.168 105.064 262.248 105.48C262.328 105.896 262.4 106.304 262.464 106.704C262.528 107.088 262.576 107.424 262.608 107.712C262.656 107.312 262.728 106.84 262.824 106.296C262.92 105.736 263.024 105.176 263.136 104.616C263.264 104.056 263.368 103.592 263.448 103.224L265.632 93.864H269.208ZM277.051 96.48C277.051 97.12 277.027 97.736 276.979 98.328C276.947 98.92 276.915 99.336 276.883 99.576H277.075C277.363 99.128 277.699 98.768 278.083 98.496C278.467 98.208 278.891 98 279.355 97.872C279.835 97.728 280.339 97.656 280.867 97.656C281.811 97.656 282.635 97.824 283.339 98.16C284.043 98.496 284.587 99.016 284.971 99.72C285.371 100.424 285.571 101.336 285.571 102.456V111H281.995V103.344C281.995 102.4 281.819 101.696 281.467 101.232C281.131 100.752 280.603 100.512 279.883 100.512C279.163 100.512 278.595 100.68 278.179 101.016C277.779 101.352 277.491 101.84 277.315 102.48C277.139 103.12 277.051 103.904 277.051 104.832V111H273.475V92.76H277.051V96.48ZM295.225 97.896V111H291.649V97.896H295.225ZM293.449 92.76C293.977 92.76 294.433 92.888 294.817 93.144C295.201 93.384 295.393 93.84 295.393 94.512C295.393 95.168 295.201 95.624 294.817 95.88C294.433 96.136 293.977 96.264 293.449 96.264C292.905 96.264 292.441 96.136 292.057 95.88C291.689 95.624 291.505 95.168 291.505 94.512C291.505 93.84 291.689 93.384 292.057 93.144C292.441 92.888 292.905 92.76 293.449 92.76ZM306.881 108.384C307.281 108.384 307.665 108.344 308.033 108.264C308.401 108.184 308.769 108.088 309.137 107.976V110.64C308.753 110.8 308.273 110.936 307.697 111.048C307.137 111.176 306.521 111.24 305.849 111.24C305.065 111.24 304.361 111.112 303.737 110.856C303.129 110.6 302.641 110.16 302.273 109.536C301.921 108.896 301.745 108.016 301.745 106.896V100.584H300.041V99.072L302.009 97.872L303.041 95.112H305.321V97.896H308.993V100.584H305.321V106.896C305.321 107.392 305.465 107.768 305.753 108.024C306.041 108.264 306.417 108.384 306.881 108.384ZM319.567 97.656C320.783 97.656 321.823 97.888 322.687 98.352C323.567 98.816 324.247 99.488 324.727 100.368C325.207 101.248 325.447 102.328 325.447 103.608V105.336H316.999C317.031 106.344 317.327 107.136 317.887 107.712C318.463 108.288 319.255 108.576 320.263 108.576C321.111 108.576 321.879 108.496 322.567 108.336C323.255 108.16 323.967 107.896 324.703 107.544V110.304C324.063 110.624 323.383 110.856 322.663 111C321.959 111.16 321.103 111.24 320.095 111.24C318.783 111.24 317.623 111 316.615 110.52C315.607 110.024 314.815 109.28 314.239 108.288C313.663 107.296 313.375 106.048 313.375 104.544C313.375 103.008 313.631 101.736 314.143 100.728C314.671 99.704 315.399 98.936 316.327 98.424C317.255 97.912 318.335 97.656 319.567 97.656ZM319.591 100.2C318.903 100.2 318.327 100.424 317.863 100.872C317.415 101.32 317.151 102.016 317.071 102.96H322.087C322.087 102.432 321.991 101.96 321.799 101.544C321.623 101.128 321.351 100.8 320.983 100.56C320.615 100.32 320.151 100.2 319.591 100.2ZM258.024 147H248.16V129.864H258.024V132.84H251.784V136.608H257.592V139.584H251.784V144H258.024V147ZM269.222 144.384C269.622 144.384 270.006 144.344 270.374 144.264C270.742 144.184 271.11 144.088 271.478 143.976V146.64C271.094 146.8 270.614 146.936 270.038 147.048C269.478 147.176 268.862 147.24 268.19 147.24C267.406 147.24 266.702 147.112 266.078 146.856C265.47 146.6 264.982 146.16 264.614 145.536C264.262 144.896 264.086 144.016 264.086 142.896V136.584H262.382V135.072L264.35 133.872L265.382 131.112H267.662V133.896H271.334V136.584H267.662V142.896C267.662 143.392 267.806 143.768 268.094 144.024C268.382 144.264 268.758 144.384 269.222 144.384ZM280.084 132.48C280.084 133.12 280.06 133.736 280.012 134.328C279.98 134.92 279.948 135.336 279.916 135.576H280.108C280.396 135.128 280.732 134.768 281.116 134.496C281.5 134.208 281.924 134 282.388 133.872C282.868 133.728 283.372 133.656 283.9 133.656C284.844 133.656 285.668 133.824 286.372 134.16C287.076 134.496 287.62 135.016 288.004 135.72C288.404 136.424 288.604 137.336 288.604 138.456V147H285.028V139.344C285.028 138.4 284.852 137.696 284.5 137.232C284.164 136.752 283.636 136.512 282.916 136.512C282.196 136.512 281.628 136.68 281.212 137.016C280.812 137.352 280.524 137.84 280.348 138.48C280.172 139.12 280.084 139.904 280.084 140.832V147H276.508V128.76H280.084V132.48ZM298.257 133.896V147H294.681V133.896H298.257ZM296.481 128.76C297.009 128.76 297.465 128.888 297.849 129.144C298.233 129.384 298.425 129.84 298.425 130.512C298.425 131.168 298.233 131.624 297.849 131.88C297.465 132.136 297.009 132.264 296.481 132.264C295.937 132.264 295.473 132.136 295.089 131.88C294.721 131.624 294.537 131.168 294.537 130.512C294.537 129.84 294.721 129.384 295.089 129.144C295.473 128.888 295.937 128.76 296.481 128.76ZM309.722 147.24C308.426 147.24 307.322 147.008 306.41 146.544C305.498 146.064 304.802 145.328 304.322 144.336C303.842 143.344 303.602 142.072 303.602 140.52C303.602 138.92 303.874 137.616 304.418 136.608C304.962 135.6 305.714 134.856 306.674 134.376C307.65 133.896 308.77 133.656 310.034 133.656C310.93 133.656 311.706 133.744 312.362 133.92C313.034 134.096 313.618 134.304 314.114 134.544L313.058 137.304C312.498 137.08 311.97 136.896 311.474 136.752C310.994 136.608 310.514 136.536 310.034 136.536C309.41 136.536 308.89 136.688 308.474 136.992C308.058 137.28 307.746 137.72 307.538 138.312C307.346 138.888 307.25 139.616 307.25 140.496C307.25 141.36 307.354 142.08 307.562 142.656C307.786 143.216 308.106 143.64 308.522 143.928C308.938 144.2 309.442 144.336 310.034 144.336C310.786 144.336 311.45 144.24 312.026 144.048C312.602 143.84 313.162 143.56 313.706 143.208V146.256C313.162 146.608 312.586 146.856 311.978 147C311.386 147.16 310.634 147.24 309.722 147.24ZM328.266 143.112C328.266 143.992 328.058 144.744 327.642 145.368C327.226 145.976 326.602 146.44 325.77 146.76C324.938 147.08 323.906 147.24 322.674 147.24C321.762 147.24 320.978 147.176 320.322 147.048C319.666 146.936 319.01 146.744 318.354 146.472V143.52C319.058 143.84 319.818 144.104 320.634 144.312C321.45 144.52 322.17 144.624 322.794 144.624C323.498 144.624 323.994 144.52 324.282 144.312C324.586 144.104 324.738 143.832 324.738 143.496C324.738 143.272 324.674 143.072 324.546 142.896C324.434 142.72 324.178 142.52 323.778 142.296C323.378 142.072 322.754 141.784 321.906 141.432C321.09 141.08 320.418 140.736 319.89 140.4C319.362 140.048 318.97 139.632 318.714 139.152C318.458 138.656 318.33 138.04 318.33 137.304C318.33 136.088 318.802 135.176 319.746 134.568C320.69 133.96 321.946 133.656 323.514 133.656C324.33 133.656 325.106 133.736 325.842 133.896C326.578 134.056 327.338 134.32 328.122 134.688L327.042 137.256C326.61 137.064 326.194 136.896 325.794 136.752C325.394 136.608 325.002 136.496 324.618 136.416C324.25 136.336 323.866 136.296 323.466 136.296C322.938 136.296 322.538 136.368 322.266 136.512C322.01 136.656 321.882 136.872 321.882 137.16C321.882 137.368 321.946 137.56 322.074 137.736C322.218 137.896 322.482 138.072 322.866 138.264C323.266 138.456 323.85 138.712 324.618 139.032C325.37 139.336 326.018 139.656 326.562 139.992C327.106 140.312 327.522 140.72 327.81 141.216C328.114 141.696 328.266 142.328 328.266 143.112Z" fill="#777777"/>
</svg>
