<svg width="244" height="174" viewBox="0 0 244 174" fill="none" xmlns="http://www.w3.org/2000/svg">
<path d="M23.2305 140.372C35.2499 152.628 74.9131 161.622 122 161.622C169.086 161.622 208.749 152.628 220.769 140.372" stroke="#FFCF0E" stroke-width="4" stroke-miterlimit="10" stroke-linecap="round" stroke-linejoin="round"/>
<path d="M224.073 113.182C224.355 110.088 224.51 106.965 224.51 103.802C224.51 47.5738 178.619 2 122 2C65.3814 2 19.4899 47.5738 19.4899 103.802C19.4899 106.965 19.6453 110.088 19.9271 113.182C8.56842 119.073 2 126.011 2 133.453C2 144.069 15.3506 153.676 36.9506 160.644C58.6769 167.661 88.7595 172 122 172C155.24 172 185.323 167.661 207.049 160.644C228.649 153.676 242 144.069 242 133.453C242 126.011 235.432 119.073 224.073 113.182Z" stroke="#FFCF0E" stroke-width="4" stroke-miterlimit="10" stroke-linecap="round" stroke-linejoin="round"/>
<path d="M122 90.4593C133.805 90.4593 143.376 80.7238 143.376 68.7151V4.22384C136.477 2.77093 129.336 2 122 2C114.664 2 107.522 2.77093 100.623 4.22384V68.7151C100.623 80.7238 110.194 90.4593 122 90.4593Z" stroke="#FFCF0E" stroke-width="4" stroke-miterlimit="10" stroke-linecap="round" stroke-linejoin="round"/>
</svg>
