<svg width="356" height="174" viewBox="0 0 356 174" fill="none" xmlns="http://www.w3.org/2000/svg">
<path d="M23.231 140.372C35.2504 152.628 74.9136 161.622 122 161.622C169.087 161.622 208.75 152.628 220.769 140.372" stroke="#FFCF0E" stroke-width="4" stroke-miterlimit="10" stroke-linecap="round" stroke-linejoin="round"/>
<path d="M224.073 113.182C224.355 110.088 224.51 106.965 224.51 103.802C224.51 47.5738 178.619 2 122 2C65.3814 2 19.4899 47.5738 19.4899 103.802C19.4899 106.965 19.6453 110.088 19.9271 113.182C8.56842 119.073 2 126.011 2 133.453C2 144.069 15.3506 153.676 36.9506 160.644C58.6769 167.661 88.7595 172 122 172C155.24 172 185.323 167.661 207.049 160.644C228.649 153.676 242 144.069 242 133.453C242 126.011 235.432 119.073 224.073 113.182Z" stroke="#FFCF0E" stroke-width="4" stroke-miterlimit="10" stroke-linecap="round" stroke-linejoin="round"/>
<path d="M122 90.4593C133.806 90.4593 143.377 80.7238 143.377 68.7151V4.22384C136.478 2.77093 129.336 2 122 2C114.664 2 107.522 2.77093 100.624 4.22384V68.7151C100.624 80.7238 110.194 90.4593 122 90.4593Z" stroke="#FFCF0E" stroke-width="4" stroke-miterlimit="10" stroke-linecap="round" stroke-linejoin="round"/>
<path d="M273.488 84.92L277.064 77.864H280.976L275.288 88.328V95H271.688V88.448L266 77.864H269.936L273.488 84.92ZM289.453 81.656C290.669 81.656 291.709 81.888 292.573 82.352C293.453 82.816 294.133 83.488 294.613 84.368C295.093 85.248 295.333 86.328 295.333 87.608V89.336H286.885C286.917 90.344 287.213 91.136 287.773 91.712C288.349 92.288 289.141 92.576 290.149 92.576C290.997 92.576 291.765 92.496 292.453 92.336C293.141 92.16 293.853 91.896 294.589 91.544V94.304C293.949 94.624 293.269 94.856 292.549 95C291.845 95.16 290.989 95.24 289.981 95.24C288.669 95.24 287.509 95 286.501 94.52C285.493 94.024 284.701 93.28 284.125 92.288C283.549 91.296 283.261 90.048 283.261 88.544C283.261 87.008 283.517 85.736 284.029 84.728C284.557 83.704 285.285 82.936 286.213 82.424C287.141 81.912 288.221 81.656 289.453 81.656ZM289.477 84.2C288.789 84.2 288.213 84.424 287.749 84.872C287.301 85.32 287.037 86.016 286.957 86.96H291.973C291.973 86.432 291.877 85.96 291.685 85.544C291.509 85.128 291.237 84.8 290.869 84.56C290.501 84.32 290.037 84.2 289.477 84.2ZM304.209 95H300.633V76.76H304.209V95ZM313.921 95H310.345V76.76H313.921V95ZM331.962 88.424C331.962 89.512 331.81 90.48 331.506 91.328C331.218 92.176 330.794 92.896 330.234 93.488C329.69 94.064 329.026 94.504 328.242 94.808C327.458 95.096 326.57 95.24 325.578 95.24C324.666 95.24 323.818 95.096 323.034 94.808C322.266 94.504 321.602 94.064 321.042 93.488C320.482 92.896 320.042 92.176 319.722 91.328C319.418 90.48 319.266 89.512 319.266 88.424C319.266 86.968 319.522 85.744 320.034 84.752C320.546 83.744 321.282 82.976 322.242 82.448C323.202 81.92 324.338 81.656 325.65 81.656C326.882 81.656 327.97 81.92 328.914 82.448C329.858 82.976 330.602 83.744 331.146 84.752C331.69 85.744 331.962 86.968 331.962 88.424ZM322.914 88.424C322.914 89.288 323.002 90.016 323.178 90.608C323.37 91.184 323.666 91.624 324.066 91.928C324.466 92.216 324.986 92.36 325.626 92.36C326.266 92.36 326.778 92.216 327.162 91.928C327.562 91.624 327.85 91.184 328.026 90.608C328.218 90.016 328.314 89.288 328.314 88.424C328.314 87.56 328.218 86.84 328.026 86.264C327.85 85.688 327.562 85.256 327.162 84.968C326.762 84.68 326.242 84.536 325.602 84.536C324.658 84.536 323.97 84.864 323.538 85.52C323.122 86.16 322.914 87.128 322.914 88.424ZM346.617 90.416C346.553 90.144 346.457 89.744 346.329 89.216C346.217 88.672 346.089 88.096 345.945 87.488C345.801 86.864 345.665 86.296 345.537 85.784C345.409 85.256 345.321 84.872 345.273 84.632H345.177C345.129 84.872 345.041 85.256 344.913 85.784C344.801 86.296 344.673 86.864 344.529 87.488C344.385 88.096 344.249 88.672 344.121 89.216C343.993 89.76 343.897 90.176 343.833 90.464L342.777 95H338.937L335.217 81.896H338.769L340.281 87.704C340.393 88.104 340.489 88.584 340.569 89.144C340.665 89.704 340.753 90.248 340.833 90.776C340.913 91.288 340.969 91.696 341.001 92H341.097C341.113 91.776 341.145 91.48 341.193 91.112C341.241 90.728 341.297 90.336 341.361 89.936C341.441 89.536 341.505 89.176 341.553 88.856C341.617 88.52 341.665 88.296 341.697 88.184L343.305 81.896H347.241L348.777 88.184C348.841 88.408 348.913 88.768 348.993 89.264C349.089 89.76 349.169 90.264 349.233 90.776C349.313 91.288 349.353 91.696 349.353 92H349.449C349.481 91.728 349.537 91.336 349.617 90.824C349.697 90.296 349.785 89.744 349.881 89.168C349.993 88.592 350.105 88.104 350.217 87.704L351.777 81.896H355.281L351.513 95H347.625L346.617 90.416ZM278.264 126.248C278.264 127.256 278.016 128.136 277.52 128.888C277.024 129.64 276.304 130.224 275.36 130.64C274.432 131.04 273.296 131.24 271.952 131.24C271.36 131.24 270.776 131.2 270.2 131.12C269.64 131.04 269.096 130.928 268.568 130.784C268.056 130.624 267.568 130.432 267.104 130.208V126.824C267.92 127.176 268.76 127.504 269.624 127.808C270.504 128.096 271.376 128.24 272.24 128.24C272.832 128.24 273.304 128.16 273.656 128C274.024 127.84 274.288 127.624 274.448 127.352C274.624 127.08 274.712 126.768 274.712 126.416C274.712 125.984 274.56 125.616 274.256 125.312C273.968 125.008 273.576 124.728 273.08 124.472C272.584 124.2 272.016 123.912 271.376 123.608C270.976 123.416 270.544 123.192 270.08 122.936C269.616 122.664 269.168 122.336 268.736 121.952C268.32 121.552 267.976 121.072 267.704 120.512C267.432 119.952 267.296 119.28 267.296 118.496C267.296 117.472 267.528 116.6 267.992 115.88C268.472 115.144 269.144 114.584 270.008 114.2C270.888 113.816 271.92 113.624 273.104 113.624C274 113.624 274.848 113.728 275.648 113.936C276.464 114.144 277.312 114.44 278.192 114.824L277.016 117.656C276.232 117.336 275.528 117.088 274.904 116.912C274.28 116.736 273.64 116.648 272.984 116.648C272.536 116.648 272.152 116.72 271.832 116.864C271.512 117.008 271.264 117.208 271.088 117.464C270.928 117.72 270.848 118.024 270.848 118.376C270.848 118.776 270.968 119.12 271.208 119.408C271.448 119.68 271.808 119.944 272.288 120.2C272.768 120.456 273.368 120.76 274.088 121.112C274.968 121.528 275.712 121.96 276.32 122.408C276.944 122.856 277.424 123.384 277.76 123.992C278.096 124.6 278.264 125.352 278.264 126.248ZM288.867 117.632C290.627 117.632 291.971 118.016 292.899 118.784C293.843 119.536 294.315 120.696 294.315 122.264V131H291.819L291.123 129.224H291.027C290.659 129.688 290.275 130.072 289.875 130.376C289.491 130.68 289.043 130.896 288.531 131.024C288.035 131.168 287.419 131.24 286.683 131.24C285.915 131.24 285.219 131.096 284.595 130.808C283.987 130.504 283.507 130.048 283.155 129.44C282.803 128.816 282.627 128.032 282.627 127.088C282.627 125.696 283.115 124.672 284.091 124.016C285.067 123.344 286.531 122.976 288.483 122.912L290.763 122.84V122.264C290.763 121.576 290.579 121.072 290.211 120.752C289.859 120.432 289.363 120.272 288.723 120.272C288.083 120.272 287.459 120.368 286.851 120.56C286.243 120.736 285.635 120.96 285.027 121.232L283.851 118.808C284.555 118.44 285.331 118.152 286.179 117.944C287.043 117.736 287.939 117.632 288.867 117.632ZM289.371 124.976C288.219 125.008 287.419 125.216 286.971 125.6C286.523 125.984 286.299 126.488 286.299 127.112C286.299 127.656 286.459 128.048 286.779 128.288C287.099 128.512 287.515 128.624 288.027 128.624C288.795 128.624 289.443 128.4 289.971 127.952C290.499 127.488 290.763 126.84 290.763 126.008V124.928L289.371 124.976ZM307.623 120.584H304.527V131H300.951V120.584H298.983V118.856L300.951 117.896V116.936C300.951 115.816 301.135 114.952 301.503 114.344C301.887 113.72 302.423 113.28 303.111 113.024C303.815 112.768 304.639 112.64 305.583 112.64C306.287 112.64 306.919 112.696 307.479 112.808C308.055 112.92 308.519 113.048 308.871 113.192L307.959 115.808C307.687 115.728 307.391 115.656 307.071 115.592C306.751 115.512 306.383 115.472 305.967 115.472C305.471 115.472 305.103 115.624 304.863 115.928C304.639 116.232 304.527 116.616 304.527 117.08V117.896H307.623V120.584ZM317.456 117.656C318.672 117.656 319.712 117.888 320.576 118.352C321.456 118.816 322.136 119.488 322.616 120.368C323.096 121.248 323.336 122.328 323.336 123.608V125.336H314.888C314.92 126.344 315.216 127.136 315.776 127.712C316.352 128.288 317.144 128.576 318.152 128.576C319 128.576 319.768 128.496 320.456 128.336C321.144 128.16 321.856 127.896 322.592 127.544V130.304C321.952 130.624 321.272 130.856 320.552 131C319.848 131.16 318.992 131.24 317.984 131.24C316.672 131.24 315.512 131 314.504 130.52C313.496 130.024 312.704 129.28 312.128 128.288C311.552 127.296 311.264 126.048 311.264 124.544C311.264 123.008 311.52 121.736 312.032 120.728C312.56 119.704 313.288 118.936 314.216 118.424C315.144 117.912 316.224 117.656 317.456 117.656ZM317.48 120.2C316.792 120.2 316.216 120.424 315.752 120.872C315.304 121.32 315.04 122.016 314.96 122.96H319.976C319.976 122.432 319.88 121.96 319.688 121.544C319.512 121.128 319.24 120.8 318.872 120.56C318.504 120.32 318.04 120.2 317.48 120.2ZM334.156 128.384C334.556 128.384 334.94 128.344 335.308 128.264C335.676 128.184 336.044 128.088 336.412 127.976V130.64C336.028 130.8 335.548 130.936 334.972 131.048C334.412 131.176 333.796 131.24 333.124 131.24C332.34 131.24 331.636 131.112 331.012 130.856C330.404 130.6 329.916 130.16 329.548 129.536C329.196 128.896 329.02 128.016 329.02 126.896V120.584H327.316V119.072L329.284 117.872L330.316 115.112H332.596V117.896H336.268V120.584H332.596V126.896C332.596 127.392 332.74 127.768 333.028 128.024C333.316 128.264 333.692 128.384 334.156 128.384ZM339.57 117.896H343.482L345.954 125.264C346.034 125.504 346.098 125.744 346.146 125.984C346.21 126.224 346.258 126.472 346.29 126.728C346.338 126.984 346.37 127.256 346.386 127.544H346.458C346.506 127.128 346.57 126.736 346.65 126.368C346.746 125.984 346.85 125.616 346.962 125.264L349.386 117.896H353.226L347.682 132.68C347.346 133.576 346.906 134.328 346.362 134.936C345.834 135.544 345.218 136 344.514 136.304C343.81 136.608 343.042 136.76 342.21 136.76C341.81 136.76 341.458 136.736 341.154 136.688C340.866 136.656 340.61 136.616 340.386 136.568V133.736C340.562 133.768 340.77 133.8 341.01 133.832C341.266 133.864 341.53 133.88 341.802 133.88C342.298 133.88 342.722 133.776 343.074 133.568C343.442 133.36 343.746 133.072 343.986 132.704C344.226 132.352 344.418 131.968 344.562 131.552L344.778 130.904L339.57 117.896Z" fill="#FFCF0E"/>
</svg>
