<svg width="180" height="48" viewBox="0 0 180 48" fill="none" xmlns="http://www.w3.org/2000/svg">
<path d="M21.2336 39.2901C21.2336 41.7565 21.6976 43.4998 22.6255 44.5264C23.5534 45.5508 25.1556 46.1211 27.4298 46.2374V48H0V46.2374C2.27426 46.1448 3.87642 45.581 4.80434 44.5436C5.73225 43.5063 6.19621 41.7565 6.19621 39.2901V8.70771C6.19621 6.24346 5.72575 4.49159 4.78699 3.45424C3.84607 2.41905 2.25041 1.85518 0 1.76263V0H27.4298V1.79707C25.1317 1.91329 23.5252 2.47716 22.6081 3.49083C21.6911 4.50451 21.2336 6.24346 21.2336 8.70986V39.2901Z" fill="white"/>
<path d="M74.704 0V12.4051H72.9977C72.6725 9.06497 71.7381 6.6739 70.1966 5.23409C68.653 3.79429 66.2574 3.07331 63.0075 3.07331H59.8747V39.288C59.8747 41.7544 60.3321 43.4976 61.2492 44.5242C62.1663 45.5487 63.7728 46.119 66.0709 46.2352V47.9978H38.6411V46.2352C40.8698 46.1663 42.459 45.6068 43.4107 44.5587C44.3625 43.5106 44.8373 41.7544 44.8373 39.288V3.07546H41.7045C38.4546 3.07546 36.0698 3.79644 34.55 5.23625C33.0303 6.67605 32.1067 9.06712 31.7815 12.4073H30.0059V0H74.704Z" fill="white"/>
<path d="M77.1406 47.9978V46.2352C79.391 46.1663 80.9867 45.6068 81.9276 44.5587C82.8664 43.5106 83.3368 41.7544 83.3368 39.288V8.70771C83.3368 6.24346 82.8664 4.49159 81.9276 3.45424C80.9889 2.41689 79.391 1.85302 77.1406 1.76048V0H119.541V13.096H117.834C117.301 9.38779 116.117 6.79012 114.283 5.30296C112.449 3.81796 109.433 3.07331 105.232 3.07331H98.3742V21.8037H99.1742C101.819 21.8037 103.792 21.044 105.093 19.5224C106.392 18.0008 107.215 15.4677 107.564 11.9209H109.375V34.9707H107.564C107.215 31.3551 106.381 28.7854 105.058 27.2638C103.736 25.7443 101.704 24.9825 98.9661 24.9825H98.3742V39.8411C98.3742 42.1676 98.7341 43.5902 99.4539 44.1089C100.174 44.6275 101.971 44.8858 104.85 44.8858C109.353 44.8858 112.805 43.9539 115.207 42.088C117.609 40.222 119.367 37.1229 120.482 32.7927H122.465L119.682 47.9978H77.1406Z" fill="white"/>
<path d="M147.354 39.2901C147.354 41.7565 147.738 43.4998 148.503 44.5264C149.268 45.5508 150.569 46.1211 152.401 46.2374L152.436 48H126.118V46.2374C128.369 46.1685 129.964 45.6089 130.905 44.5608C131.846 43.5127 132.314 41.7565 132.314 39.2901V8.70771C132.314 6.24346 131.844 4.49159 130.905 3.45424C129.966 2.41689 128.369 1.85302 126.118 1.76048V0H152.575V1.79707C150.647 1.88961 149.296 2.43626 148.518 3.43918C147.74 4.44209 147.352 6.19827 147.352 8.70986V23.7428L161.032 6.80949C161.589 6.14231 162.001 5.54186 162.268 5.01242C162.534 4.48298 162.669 3.99874 162.669 3.56185C162.669 2.98722 162.285 2.54818 161.52 2.24902C160.754 1.94987 159.616 1.79922 158.107 1.79922V0H174.155V1.79707H173.598C171.996 1.79707 170.593 2.10268 169.385 2.71174C168.178 3.32296 167.018 4.33018 165.904 5.73555L158.489 14.8931L174.571 41.6403C175.475 43.0694 176.369 44.1584 177.251 44.9052C178.133 45.6541 179.048 46.0975 180 46.2352V47.9978H155.499V46.2352C157.286 46.1427 158.504 45.9705 159.154 45.7165C159.805 45.4626 160.13 45.0494 160.13 44.4726C160.13 44.1734 160.065 43.8506 159.939 43.5041C159.811 43.1576 159.538 42.6282 159.122 41.9136L149.513 25.5679L147.354 28.1935V39.2901Z" fill="white"/>
</svg>
